<svg xmlns="http://www.w3.org/2000/svg" viewBox="0 -1 1168 533" role="img" aria-label="Cyncia logo">
  <defs>
    <linearGradient id="cg" x1="0" y1="0" x2="0" y2="512" gradientUnits="userSpaceOnUse">
      <stop offset="0" stop-color="#1e78f0"/>
      <stop offset="1" stop-color="#8629e6"/>
    </linearGradient>
  </defs>

  <!-- C mark (same geometry as favicon-rounded.svg, scaled into place) -->
  <g transform="translate(46.4 33.6) scale(0.7716)">
    <path d="M 366.1 98.7 A 192 192 0 1 0 366.1 413.3" fill="none" stroke="url(#cg)" stroke-width="46" stroke-linecap="round"/>
    <path d="M 344.9 137.3 L 396.4 63.7 L 433.1 144.3 Z" fill="url(#cg)" stroke="url(#cg)" stroke-width="18" stroke-linejoin="round"/>
    <path d="M 344.9 374.7 L 396.4 448.3 L 433.1 367.7 Z" fill="url(#cg)" stroke="url(#cg)" stroke-width="18" stroke-linejoin="round"/>
    <path d="M 101 188 L 252 188" fill="none" stroke="url(#cg)" stroke-width="22" stroke-linecap="round"/>
    <path d="M 87 256 L 332 256" fill="none" stroke="url(#cg)" stroke-width="22" stroke-linecap="round"/>
    <path d="M 101 324 L 252 324" fill="none" stroke="url(#cg)" stroke-width="22" stroke-linecap="round"/>
    <circle cx="252" cy="188" r="19" fill="url(#cg)"/>
    <circle cx="332" cy="256" r="27" fill="url(#cg)"/>
    <circle cx="252" cy="324" r="19" fill="url(#cg)"/>
  </g>

  <!-- yncia wordmark -->
  <path fill="#f4f8ff" d="M448.8385198714999 187.50092714043868 496.9227018493261 323.87114722654565 478.43911375377655 356.15318250850356 414.0 187.50092714043868ZM417.9120046506795 398.944480346071V371.5375250459623H438.17473304853263Q445.0849582026431 371.5375250459623 450.5081801030865 370.0257392203293Q455.9314020035298 368.5139533946963 460.23660771600925 364.2100344591201Q464.5418134284887 359.9061155235439 467.691629951665 351.14539982795475L527.5665659168882 187.50092714043868H561.4012926188302L491.88162601982856 364.84330324540787Q484.1960537329723 384.4689175365634 472.5095197803214 393.30819394903864Q460.8229858276705 402.14747036151385 443.4837319305699 402.14747036151385Q436.33190173440477 402.14747036151385 430.02463717823673 401.34672285765316Q423.71737262206864 400.5459753537924 417.9120046506795 398.944480346071Z M619.222529701384 332.5007425862382H586.5695101992302V187.50092714043868H616.5932962636563L619.5146667500205 207.54324229062746Q626.3480418870641 196.0424136622412 638.8078189580724 189.645190570958Q651.2675960290807 183.24796747967483 666.1534265042955 183.24796747967483Q693.6385230722154 183.24796747967483 707.2997458508758 199.36165339951236Q720.960968629536 215.47533931934993 720.960968629536 243.42533276318886V332.5007425862382H688.3079491273821V251.10051161318228Q688.3079491273821 231.7249106448885 679.6404261932203 222.46468976404492Q670.9729032590583 213.20446888320134 656.4318458534501 213.20446888320134Q638.8815129535567 213.20446888320134 629.0520213274704 224.531453380012Q619.222529701384 235.85843787682268 619.222529701384 254.77328356713824Z M742.9606288172824 259.8723757739739Q742.9606288172824 237.30281145077208 752.087147839457 220.0616560710613Q761.2136668616315 202.8205006913505 777.2690975385862 193.03423408551265Q793.3245282155408 183.24796747967483 814.5494687528358 183.24796747967483Q843.0930985256721 183.24796747967483 861.5943211146971 198.31274465652518Q880.0955437037221 213.3775218333755 883.1685102098315 238.79336124833407H850.2233536590413Q847.0866961411075 225.8704559764032 837.9370151300304 219.30044965587817Q828.7873341189534 212.73044333535313 815.6169529342179 212.73044333535313Q803.8698839913253 212.73044333535313 794.77073498683 218.50633728695243Q785.6715859823347 224.28223123855173 780.6744626567977 234.77741436149432Q775.6773393312606 245.27259748443691 775.6773393312606 259.7571869544793Q775.6773393312606 274.0756283302149 780.4141711140734 284.60292622549866Q785.1510028968862 295.1302241207824 793.900903343542 300.8740033000405Q802.6508037901979 306.6177824792987 814.5757867633208 306.6177824792987Q828.495197070317 306.6177824792987 837.9370151300304 299.8428781571907Q847.3788331897439 293.0679738350827 850.4517996958534 280.7852422053069H883.3969562466436Q881.022486856213 297.27209602570184 871.6356762913142 309.7108881869159Q862.2488657264155 322.14968034812995 847.5520042722852 329.1825637513008Q832.855142818155 336.2154471544716 814.5757867633208 336.2154471544716Q792.9818591603226 336.2154471544716 776.8627374715436 326.66619332255783Q760.7436157827647 317.1169394906441 751.8521223000236 299.99097293042786Q742.9606288172824 282.86500637021163 742.9606288172824 259.8723757739739Z M905.8140720253045 332.5007425862382V187.50092714043868H938.4670915274584V332.5007425862382ZM921.9626677461512 156.5735382689463Q913.4380573147249 156.5735382689463 907.473461813775 150.55850973875533Q901.5088663128251 144.5434812085644 901.5088663128251 136.06198062210905Q901.5088663128251 127.46529121615913 907.473461813775 121.48237745830932Q913.4380573147249 115.4994637004595 921.9626677461512 115.4994637004595Q930.3093641473471 115.4994637004595 936.2739596482969 121.48237745830932Q942.2385551492467 127.46529121615913 942.2385551492467 136.06198062210905Q942.2385551492467 144.5434812085644 936.2739596482969 150.55850973875533Q930.3093641473471 156.5735382689463 921.9626677461512 156.5735382689463Z M1009.9349776252138 336.2154471544716Q987.0845968197489 336.2154471544716 973.9571161317797 323.918384352492Q960.8296354438105 311.62132155051245 960.8296354438105 291.49726297643633Q960.8296354438105 271.51493376159465 974.7632567632434 259.5512280505626Q988.6968780826762 247.58752233953052 1014.3038743495175 245.52527205383086L1058.0586366187677 242.05421539445655V238.54546973013987Q1058.0586366187677 227.8398143730131 1054.1092589667487 221.36615236951147Q1050.15988131473 214.89249036600984 1043.2133351664745 211.98516843657214Q1036.266789018219 209.07784650713444 1026.9447214723386 209.07784650713444Q1010.5739917578451 209.07784650713444 1001.7538207967436 215.70544723740676Q992.9336498356423 222.33304796767905 992.9336498356423 234.53827978290266H964.9063951194778Q964.9063951194778 218.89755850857952 972.7501429287006 207.3879729405907Q980.5938907379234 195.87838737260188 995.0238811467082 189.56317742613834Q1009.4538715554928 183.24796747967483 1028.4822567325875 183.24796747967483Q1047.4095778965188 183.24796747967483 1061.1344916870034 189.92864928942697Q1074.859405477488 196.60933109917912 1082.429702738744 210.01501885856075Q1090.0 223.4207066179424 1090.0 243.48053564733624V332.5007425862382H1061.5774402076472L1058.770292739689 310.29213679605755Q1053.779748916773 322.0366133333029 1040.3798696880312 329.12603024388727Q1026.9799904592896 336.2154471544716 1009.9349776252138 336.2154471544716ZM1020.2276733680894 311.03901203903695Q1037.7648472627404 311.03901203903695 1048.0006989558692 300.73094331754Q1058.236550648998 290.42287459604296 1058.236550648998 272.57126882091836V264.7320636812856L1025.9693503276542 267.48544688395265Q1008.735368472494 268.89425325762727 1001.3758827545747 274.8230250336635Q994.0163970366555 280.75179680969967 994.0163970366555 290.126145607704Q994.0163970366555 300.6146935957116 1000.9245181763775 305.8268528173743Q1007.8326393160996 311.03901203903695 1020.2276733680894 311.03901203903695Z"/>

  <!-- slogan -->
  <path fill="#f4f8ff" d="M301.1425624922078 454.0H295.7545428469084V418.25652669935926H301.1425624922078V440.6287912286116L310.81770620397884 430.2744342466413H317.59568102881974L308.57082873928454 439.7059459601965L317.4572327604812 454.0H311.23270382913086L304.8159608258119 443.66631493092814L301.1425624922078 447.50317613626703Z M331.5694116269674 454.60781779078104Q328.06712000650293 454.60781779078104 325.3696354430145 453.0159657517176Q322.67215087952604 451.42411371265416 321.14209685619244 448.61245699146264Q319.61204283285883 445.80080027027105 319.61204283285883 442.1267075769396Q319.61204283285883 438.4232575897141 321.1033156885418 435.602176994766Q322.5945885442247 432.7810963998179 325.2491228394964 431.17982048699787Q327.9036571347681 429.5785445741779 331.36825326020636 429.5785445741779Q334.8748875711687 429.5785445741779 337.4435213300069 431.06039355610426Q340.01215508884513 432.5422425380306 341.4216965086606 435.2219650266304Q342.8312379284761 437.9016875152302 342.8312379284761 441.5529369504143V443.3009993327049L322.4800250736244 443.35971392049316L322.5764351564389 439.8545565950525H337.4537278295578Q337.4537278295578 437.2101405332646 335.8129322563263 435.6249761198798Q334.1721366830948 434.039811706495 331.3976105541005 434.039811706495Q329.25374547403453 434.039811706495 327.77115799934734 434.9513648027347Q326.28857052466014 435.86291789897444 325.5122086788856 437.6452451684861Q324.73584683311105 439.42757243799775 324.73584683311105 441.99694468959683Q324.73584683311105 445.99327325603633 326.4960693372362 448.06991195725016Q328.2562918413613 450.1465506584639 331.65748350864976 450.1465506584639Q334.1554602808306 450.1465506584639 335.7607317042848 449.1878781934414Q337.3660031277391 448.22920572841895 337.86472994407563 446.4376281750825H342.88995251626443Q342.1125049978654 450.2690168842656 339.11619272224516 452.43841733752333Q336.1198804466249 454.60781779078104 331.5694116269674 454.60781779078104Z M358.1785944837648 454.60781779078104Q354.67630286330035 454.60781779078104 351.9788182998119 453.0159657517176Q349.28133373632346 451.42411371265416 347.75127971298986 448.61245699146264Q346.22122568965625 445.80080027027105 346.22122568965625 442.1267075769396Q346.22122568965625 438.4232575897141 347.71249854533914 435.602176994766Q349.2037714010221 432.7810963998179 351.85830569629377 431.17982048699787Q354.5128399915655 429.5785445741779 357.9774361170038 429.5785445741779Q361.4840704279661 429.5785445741779 364.05270418680436 431.06039355610426Q366.62133794564255 432.5422425380306 368.0308793654581 435.2219650266304Q369.44042078527355 437.9016875152302 369.44042078527355 441.5529369504143V443.3009993327049L349.0892079304218 443.35971392049316L349.1856180132363 439.8545565950525H364.0629106863552Q364.0629106863552 437.2101405332646 362.4221151131237 435.6249761198798Q360.7813195398922 434.039811706495 358.0067934108979 434.039811706495Q355.86292833083195 434.039811706495 354.38034085614476 434.9513648027347Q352.89775338145756 435.86291789897444 352.121391535683 437.6452451684861Q351.3450296899085 439.42757243799775 351.3450296899085 441.99694468959683Q351.3450296899085 445.99327325603633 353.1052521940336 448.06991195725016Q354.8654746981587 450.1465506584639 358.26666636544724 450.1465506584639Q360.764643137628 450.1465506584639 362.3699145610823 449.1878781934414Q363.9751859845365 448.22920572841895 364.47391280087305 446.4376281750825H369.49913537306185Q368.72168785466283 450.2690168842656 365.7253755790426 452.43841733752333Q362.7290633034223 454.60781779078104 358.1785944837648 454.60781779078104Z M374.3015743920672 464.87184327975297V430.2744342466413H379.2557486647014L379.6225412484462 434.10078590559925Q380.74793360307694 431.9047202734918 382.9726180363177 430.74163242383486Q385.19730246955845 429.5785445741779 387.92179939176026 429.5785445741779Q391.3150000377803 429.5785445741779 393.79447624231165 431.12002022658515Q396.273952446843 432.6614958789924 397.6447126990078 435.4238618861523Q399.0154729511726 438.18622789331215 399.0154729511726 441.9023587721676Q399.0154729511726 445.55977506323484 397.7181059337431 448.4395702459712Q396.42073891631367 451.31936542870756 393.9559413587294 452.97827025669136Q391.4911438011451 454.63717508467516 387.9511566856544 454.63717508467516Q385.2183215623205 454.63717508467516 383.02190875034944 453.5621591167006Q380.8254959383783 452.48714314872603 379.6895940373666 450.57196956393V464.87184327975297ZM379.73779907877383 442.1372171233207Q379.73779907877383 444.3543018481901 380.58863983190815 446.0862527310456Q381.43948058504253 447.81820361390106 383.0101399414121 448.79155472587064Q384.58079929778165 449.7649058378402 386.71198348621766 449.7649058378402Q388.87252496854785 449.7649058378402 390.40440315726676 448.7768760789236Q391.9362813459856 447.78884632000694 392.75776480522586 446.07157408409853Q393.57924826446606 444.3543018481901 393.57924826446606 442.1372171233207Q393.57924826446606 439.90128465093807 392.75776480522586 438.18401241502966Q391.9362813459856 436.46674017912125 390.40440315726676 435.48813429396114Q388.87252496854785 434.5095284088011 386.71198348621766 434.5095284088011Q384.58079929778165 434.5095284088011 383.0101399414121 435.47345564701413Q381.43948058504253 436.4373828852271 380.58863983190815 438.15465512113553Q379.73779907877383 439.87192735704394 379.73779907877383 442.1372171233207Z M401.9357440100467 446.9113403880229H407.0700575566799Q407.12877214446814 448.54162641487335 408.29911252263275 449.4908750061393Q409.4694529007973 450.44012359740526 411.53358430031295 450.44012359740526Q413.7401594788014 450.44012359740526 414.8989046379605 449.60721850909135Q416.0576497971196 448.7743134207775 416.0576497971196 447.38722394621215Q416.0576497971196 446.40462255041786 415.4500055962704 445.7047373673202Q414.84236139542116 445.00485218422256 413.13451303326934 444.60253545070043L408.9069744464473 443.6195868750425Q405.7316085694525 442.8776635064208 404.1680281516587 441.27221849303476Q402.6044477338649 439.66677347964867 402.6044477338649 436.89989119205916Q402.6044477338649 434.6194020090399 403.79815213997233 432.9824283565108Q404.9918565460797 431.34545470398166 407.0784398908455 430.46199963907975Q409.16502323561133 429.5785445741779 411.8500004974016 429.5785445741779Q414.49511091891674 429.5785445741779 416.48002940767753 430.5154594536775Q418.4649478964384 431.45237433317715 419.58525906781045 433.15223167406054Q420.7055702391825 434.852089014944 420.72441798669564 437.17861189412156H415.5901044400624Q415.5524089450362 435.529478119758 414.51834548996123 434.59382250281465Q413.4842820348863 433.6581668858713 411.6444994401427 433.6581668858713Q409.7880404431349 433.6581668858713 408.758146088626 434.46805512610604Q407.7282517341171 435.27794336634076 407.7282517341171 436.6943901348002Q407.7282517341171 438.8212316327384 410.93445189052767 439.58816960475633L415.1725000237307 440.5711181804143Q418.1800603384928 441.2543269612478 419.6807570679323 442.76336189181933Q421.1814537973718 444.2723968223909 421.1814537973718 446.9762218316943Q421.1814537973718 449.3049160561208 419.9447991230477 451.03413069089834Q418.70814444872354 452.7633453256759 416.5052176010057 453.6855815582285Q414.3022907532878 454.60781779078104 411.3951360319744 454.60781779078104Q407.056335125459 454.60781779078104 404.49603956775286 452.48770805155505Q401.9357440100467 450.36759831232905 401.9357440100467 446.9113403880229Z M441.84508733867796 430.2744342466413 449.77937706363247 452.58798418810545 446.7294313834826 457.87012574380026 436.09644196551693 430.2744342466413ZM436.74195525132416 464.87184327975297V460.38738570942485H440.08547387041534Q441.22571846192494 460.38738570942485 442.1205951559005 460.1400200565737Q443.01547184987606 459.8926544037225 443.7258665793547 459.188426530127Q444.4362613088334 458.4841986565315 444.95600721793204 457.0507283059442L454.8358693611677 430.2744342466413H460.4188805173449L448.94755764794303 459.2920450084156Q447.6793743344758 462.5032822150513 445.75099908825433 463.9496070472004Q443.82262384203284 465.39593187934946 440.9615028168778 465.39593187934946Q439.781391385093 465.39593187934946 438.7406403043394 465.2649097294503Q437.69988922358584 465.1338875795512 436.74195525132416 464.87184327975297Z M462.39537548110883 442.10785982942656Q462.39537548110883 438.41274804333307 464.0218395872569 435.60109132214154Q465.648303693405 432.78943460094996 468.5009129274962 431.198668234511Q471.35352216158736 429.607901868072 474.98375250400943 429.607901868072Q478.6328305939445 429.607901868072 481.4613373073321 431.198668234511Q484.28984402071967 432.78943460094996 485.91630812686776 435.60109132214154Q487.5427722330158 438.41274804333307 487.5427722330158 442.10785982942656Q487.5427722330158 445.7841238680069 485.91630812686776 448.5905258160079Q484.28984402071967 451.3969277640089 481.4613373073321 452.98769413044795Q478.6328305939445 454.5784604968869 474.98375250400943 454.5784604968869Q471.35352216158736 454.5784604968869 468.5009129274962 452.98769413044795Q465.648303693405 451.3969277640089 464.0218395872569 448.5905258160079Q462.39537548110883 445.7841238680069 462.39537548110883 442.10785982942656ZM467.83160016781545 442.0785025355324Q467.83160016781545 444.3437923018091 468.74840803724567 446.0757431846646Q469.66521590667594 447.80769406752006 471.2683159848812 448.7716213057331Q472.8714160630865 449.7355485439461 474.98375250400943 449.7355485439461Q477.0960889449323 449.7355485439461 478.6991890231376 448.7716213057331Q480.30228910134286 447.80769406752006 481.2044183238261 446.0757431846646Q482.10654754630923 444.3437923018091 482.10654754630923 442.0785025355324Q482.10654754630923 439.7943650217426 481.2044183238261 438.08651665959076Q480.30228910134286 436.3786682974389 478.6991890231376 435.4147410592259Q477.0960889449323 434.45081382101284 474.98375250400943 434.45081382101284Q472.8714160630865 434.45081382101284 471.2683159848812 435.4147410592259Q469.66521590667594 436.3786682974389 468.74840803724567 438.08651665959076Q467.83160016781545 439.7943650217426 467.83160016781545 442.0785025355324Z M508.54827202073756 430.2744342466413H513.9362916660369V454.0H508.98211739340275L508.51891472684343 450.67854201326185Q507.4855897645293 452.43676676206985 505.342636767156 453.52229227642545Q503.19968376978267 454.60781779078104 500.74774069376014 454.60781779078104Q496.6314644266315 454.60781779078104 494.34897748829513 452.019424201737Q492.06649054995876 449.43103061269306 492.06649054995876 445.0715577932793V430.25558649912824H497.47335794277126V443.2013763650506Q497.47335794277126 446.7261640637987 498.85428056145344 448.26021359776655Q500.2352031801356 449.79426313173434 502.7458608439464 449.79426313173434Q505.64615434964935 449.79426313173434 507.0972131851935 448.0351263002336Q508.54827202073756 446.275989468733 508.54827202073756 442.7323540224717Z M534.6332780118715 430.1425000140496V435.15321752922307H532.5162517005871Q529.315871220196 435.15321752922307 527.4610627986417 436.91252795065554Q525.6062543770873 438.6718383720881 525.6062543770873 442.1259249511453V454.0H520.2182347317879V430.3037915405355H525.2854954895008L525.732021753796 435.1790147584137H525.2267809017126Q525.708831315785 432.8253059305909 527.4955012757945 431.334033074908Q529.282171235804 429.84276021922506 532.1095922765671 429.84276021922506Q532.7279196137291 429.84276021922506 533.3326539765685 429.90564390757936Q533.937388339408 429.9685275959337 534.6332780118715 430.1425000140496Z M555.0703914031567 454.0H549.2043168544192L561.9116000384179 418.8937017840344H567.8882425471215L580.6227116797654 454.0H574.6497175018324L571.7095571558542 445.66956039740654H558.0210612955159ZM564.1609077621576 428.36855213650125 559.7024180687498 440.8476675372278H570.0575576765144L565.5613724880803 428.36855213650125Q565.3663809772024 427.7165248149472 565.1525417188113 427.0445640732556Q564.9387024604204 426.37260333156394 564.861140125119 425.9155675208878Q564.7835777898176 426.3537555840508 564.5938410521303 427.0298854263085Q564.4041043144429 427.7060152685662 564.1609077621576 428.36855213650125Z M590.764965302663 418.8937017840344V454.0H585.1043918111843V418.8937017840344Z M609.4689568146034 442.1161980305586Q609.4689568146034 438.4232575897141 610.9749083172334 435.602176994766Q612.4808598198633 432.7810963998179 615.1301393419445 431.17982048699787Q617.7794188640257 429.5785445741779 621.2817104844902 429.5785445741779Q625.9916466652483 429.5785445741779 629.0445021834079 432.043515721694Q632.0973577015675 434.5084868692102 632.6044227190362 438.66714850172656H627.1681980323295Q626.6506234684798 436.55264071555473 625.1408500451474 435.4776247475802Q623.631076621815 434.4026087796056 621.457854247855 434.4026087796056Q619.519490225048 434.4026087796056 618.0180550028476 435.3476882703055Q616.5166197806474 436.2927677610054 615.6920528934656 438.0100399969138Q614.8674860062838 439.7273122328222 614.8674860062838 442.0973502830455Q614.8674860062838 444.4402023846236 615.6491026252488 446.16272939372254Q616.430719244214 447.8852564028214 617.8745255512504 448.8250811203308Q619.3183318582869 449.7649058378402 621.2860531749881 449.7649058378402Q623.5828715804079 449.7649058378402 625.1408500451475 448.65636347540544Q626.6988285098871 447.5478211129707 627.2058935273558 445.5380616107455H632.6421182140624Q632.2503110269213 448.2357197641657 630.7014092560746 450.27101463958275Q629.1525074852278 452.3063095149997 626.7274031779868 453.4570636528904Q624.3022988707459 454.60781779078104 621.2860531749881 454.60781779078104Q617.7228756214864 454.60781779078104 615.0630865530243 453.0453230456117Q612.403297484562 451.4828283004424 610.9361271495827 448.6805954530074Q609.4689568146034 445.8783626055724 609.4689568146034 442.1161980305586Z M635.7407043815501 442.10785982942656Q635.7407043815501 438.41274804333307 637.3671684876982 435.60109132214154Q638.9936325938463 432.78943460094996 641.8462418279375 431.198668234511Q644.6988510620287 429.607901868072 648.3290814044507 429.607901868072Q651.9781594943857 429.607901868072 654.8066662077733 431.198668234511Q657.6351729211609 432.78943460094996 659.261637027309 435.60109132214154Q660.8881011334571 438.41274804333307 660.8881011334571 442.10785982942656Q660.8881011334571 445.7841238680069 659.261637027309 448.5905258160079Q657.6351729211609 451.3969277640089 654.8066662077733 452.98769413044795Q651.9781594943857 454.5784604968869 648.3290814044507 454.5784604968869Q644.6988510620287 454.5784604968869 641.8462418279375 452.98769413044795Q638.9936325938463 451.3969277640089 637.3671684876982 448.5905258160079Q635.7407043815501 445.7841238680069 635.7407043815501 442.10785982942656ZM641.1769290682568 442.0785025355324Q641.1769290682568 444.3437923018091 642.093736937687 446.0757431846646Q643.0105448071172 447.80769406752006 644.6136448853224 448.7716213057331Q646.2167449635277 449.7355485439461 648.3290814044507 449.7355485439461Q650.4414178453735 449.7355485439461 652.0445179235788 448.7716213057331Q653.6476180017842 447.80769406752006 654.5497472242673 446.0757431846646Q655.4518764467505 444.3437923018091 655.4518764467505 442.0785025355324Q655.4518764467505 439.7943650217426 654.5497472242673 438.08651665959076Q653.6476180017842 436.3786682974389 652.0445179235788 435.4147410592259Q650.4414178453735 434.45081382101284 648.3290814044507 434.45081382101284Q646.2167449635277 434.45081382101284 644.6136448853224 435.4147410592259Q643.0105448071172 436.3786682974389 642.093736937687 438.08651665959076Q641.1769290682568 439.7943650217426 641.1769290682568 442.0785025355324Z M675.3529147065366 454.60781779078104Q671.9198472202413 454.60781779078104 669.4309471419534 453.03698484447966Q666.9420470636655 451.4661518981782 665.5859654584478 448.67442859712423Q664.22988385323 445.8827052960703 664.22988385323 442.22528900500305Q664.22988385323 438.53851542004173 665.6006441053948 435.6880775311995Q666.9714043575597 432.8376396423572 669.5336976705829 431.2080921082676Q672.0959909836062 429.5785445741779 675.6464876454778 429.5785445741779Q678.2325362993411 429.5785445741779 680.3261985826828 430.6147793745018Q682.4198608660244 431.65101417482566 683.5557627670361 433.5850355071348V418.25652669935926H688.9437824123354V454.0H683.9896081397012L683.6228155559564 450.0855764593597Q682.5267804952198 452.2334370500599 680.3167747089261 453.4206274204205Q678.1067689226325 454.60781779078104 675.3529147065366 454.60781779078104ZM676.533373318185 449.6768339561578Q678.6834052541341 449.6768339561578 680.2446407367471 448.7129067179448Q681.8058762193601 447.7489794797318 682.6567169724945 446.01702859687634Q683.5075577256289 444.2850777140209 683.5075577256289 442.04914524163826Q683.5075577256289 439.7838554753616 682.6567169724945 438.0760071132097Q681.8058762193601 436.3681587510579 680.2446407367471 435.3948076390883Q678.6834052541341 434.4214565271187 676.533373318185 434.4214565271187Q674.402189129749 434.4214565271187 672.8556322940831 435.40948628603536Q671.309075458417 436.397516044952 670.4875919991769 438.1053644071038Q669.6661085399367 439.8132127692557 669.6661085399367 442.04914524163826Q669.6661085399367 444.2850777140209 670.4875919991769 446.0023499499293Q671.309075458417 447.7196221858377 672.8556322940831 448.69822807099774Q674.402189129749 449.6768339561578 676.533373318185 449.6768339561578Z M695.2025350400754 454.0V430.2744342466413H700.5905546853749V454.0ZM697.867187568831 425.2139464384719Q696.4605559870253 425.2139464384719 695.476348148811 424.22973860025763Q694.4921403105968 423.2455307620434 694.4921403105968 421.8577469277508Q694.4921403105968 420.451115345945 695.476348148811 419.47216228092134Q696.4605559870253 418.4932092158976 697.867187568831 418.4932092158976Q699.2444618567426 418.4932092158976 700.2286696949568 419.47216228092134Q701.2128775331711 420.451115345945 701.2128775331711 421.8577469277508Q701.2128775331711 423.2455307620434 700.2286696949568 424.22973860025763Q699.2444618567426 425.2139464384719 697.867187568831 425.2139464384719Z M712.2561747059274 454.0H706.8681550606279V430.2744342466413H711.8223293332622L712.3043797473346 433.5538540478554Q713.4319434472143 431.67203326758766 715.4879102355296 430.6252889208828Q717.5438770238451 429.5785445741779 720.0001627903655 429.5785445741779Q724.5354321932804 429.5785445741779 726.7896475103471 432.21514320462916Q729.0438628274138 434.85174183508036 729.0438628274138 439.4250539128852V454.0H723.6558431821144V440.680903514586Q723.6558431821144 437.5105746878164 722.2256298494005 435.9953729013617Q720.7954165166866 434.48017111490697 718.3960211725692 434.48017111490697Q715.5000703573642 434.48017111490697 713.8781225316458 436.33354668397317Q712.2561747059274 438.1869222530394 712.2561747059274 441.2818600897566Z M733.6074479846319 441.5902852655768Q733.6074479846319 438.1528750887838 735.0023107575003 435.44179755097275Q736.3971735303687 432.7307200131617 738.9395334232545 431.13995364672274Q741.4818933161401 429.5491872802838 744.8750939621601 429.5491872802838Q747.9642121228578 429.5491872802838 750.1637083627704 430.951128991728Q752.3632046026831 432.35307070317225 753.2475717502776 434.8173474909611L752.6375826142477 435.393636642599L753.1406521210822 430.2744342466413H758.0948263937164V452.8720891202567Q758.0948263937164 456.74768736021275 756.598298764843 459.59304406579633Q755.1017711359696 462.43840077137986 752.368588832772 463.9789643410945Q749.6354065295744 465.51952791080913 745.8478801713007 465.51952791080913Q740.832037339835 465.51952791080913 737.6157189499406 462.8376340769604Q734.3994005600462 460.1557402431117 733.7937541145141 455.4983517942587H739.2216406000886Q739.5442236530604 457.9187662311382 741.2919388554874 459.2683338006091Q743.0396540579144 460.61790137008006 745.8373706249197 460.61790137008006Q748.9891988840399 460.61790137008006 750.857426689985 458.76543788370645Q752.7256544959301 456.9129743973329 752.7256544959301 453.8115225248689V447.6086187799409L753.3755104722352 448.2352843182351Q752.4911433246407 450.64301786348454 750.1417771873158 452.0638073224419Q747.792411049991 453.4845967813992 744.6927833429122 453.4845967813992Q741.3372781919184 453.4845967813992 738.8431233404399 451.92318770885436Q736.3489684889615 450.36177863630957 734.9782082367967 447.6706345186361Q733.6074479846319 444.9794904009626 733.6074479846319 441.5902852655768ZM739.0436726713385 441.4728560900003Q739.0436726713385 443.52864928838386 739.8704109037692 445.17469963480585Q740.6971491362 446.8207499812279 742.2049248042152 447.7899319926314Q743.7127004722305 448.7591140040349 745.747474577852 448.7591140040349Q747.8493014723939 448.7591140040349 749.3906035348693 447.8234583870916Q750.9319055973448 446.88780277014826 751.753389056585 445.2417524237262Q752.5748725158252 443.5957020773042 752.5748725158252 441.4540083424872Q752.5748725158252 439.31231460767015 751.7628129303415 437.7144693026554Q750.9507533448578 436.1166239976406 749.4282990298955 435.1956470276443Q747.9058447149332 434.27467005764805 745.7558127789841 434.27467005764805Q743.6833431783364 434.27467005764805 742.1755675103211 435.22391864891404Q740.6677918423059 436.17316724017996 739.8557322568222 437.79511506589836Q739.0436726713385 439.41706289161675 739.0436726713385 441.4728560900003Z M784.4365807206267 454.60781779078104Q780.6660779444808 454.60781779078104 778.4999345090964 452.595713353375Q776.3337910737122 450.58360891596897 776.3337910737122 447.29081386339766Q776.3337910737122 444.0212092488373 778.6329544143127 442.0636502986535Q780.9321177549133 440.1060913484697 785.1574849964863 439.768656058619L792.3773844813279 439.20070510811314V438.6265873017241Q792.3773844813279 436.87487658866286 791.7257043396376 435.81562494025985Q791.0740241979472 434.75637329185685 789.9277863404863 434.28066332359936Q788.7815484830253 433.8049533553419 787.2433298484914 433.8049533553419Q784.5420233643006 433.8049533553419 783.0866218382586 434.88939319707305Q781.6312203122166 435.9738330388042 781.6312203122166 437.97091164939945H777.0064903081646Q777.0064903081646 435.4117017643178 778.3007738976526 433.52844813156196Q779.5950574871405 431.6451944988061 781.9761258535402 430.611869536492Q784.3571942199401 429.5785445741779 787.4970359471575 429.5785445741779Q790.6202012721109 429.5785445741779 792.8849261355585 430.6716697969048Q795.1496509990063 431.7647950196316 796.3988129750286 433.95829799359296Q797.6479749510509 436.15180096755427 797.6479749510509 439.43408647374457V454.0H792.9580163234638L792.4948136569045 450.3661213268074Q791.6713324423472 452.2878089473503 789.460240983429 453.44781336906567Q787.2491495245109 454.60781779078104 784.4365807206267 454.60781779078104ZM786.1349610759885 450.4883286388125Q789.0287405459446 450.4883286388125 790.7177411605834 448.8016729593545Q792.4067417752221 447.1150172798965 792.4067417752221 444.1940518612952V442.9113634908128L787.0823855018691 443.3618852657421Q784.2386352387056 443.5924009263973 783.0242589196998 444.5624950204935Q781.809882600694 445.53258911458965 781.809882600694 447.0664650586256Q781.809882600694 448.78265162190957 782.9497800123399 449.63549013036106Q784.0896774239859 450.4883286388125 786.1349610759885 450.4883286388125Z M802.2032219071368 441.5902852655768Q802.2032219071368 438.1528750887838 803.5980846800053 435.44179755097275Q804.9929474528736 432.7307200131617 807.5353073457593 431.13995364672274Q810.0776672386451 429.5491872802838 813.470867884665 429.5491872802838Q816.5599860453627 429.5491872802838 818.7594822852755 430.951128991728Q820.9589785251881 432.35307070317225 821.8433456727826 434.8173474909611L821.2333565367526 435.393636642599L821.7364260435871 430.2744342466413H826.6906003162213V452.8720891202567Q826.6906003162213 456.74768736021275 825.1940726873479 459.59304406579633Q823.6975450584745 462.43840077137986 820.9643627552769 463.9789643410945Q818.2311804520793 465.51952791080913 814.4436540938057 465.51952791080913Q809.4278112623399 465.51952791080913 806.2114928724454 462.8376340769604Q802.9951744825511 460.1557402431117 802.389528037019 455.4983517942587H807.8174145225935Q808.1399975755653 457.9187662311382 809.8877127779923 459.2683338006091Q811.6354279804193 460.61790137008006 814.4331445474246 460.61790137008006Q817.5849728065448 460.61790137008006 819.4532006124899 458.76543788370645Q821.3214284184351 456.9129743973329 821.3214284184351 453.8115225248689V447.6086187799409L821.9712843947401 448.2352843182351Q821.0869172471456 450.64301786348454 818.7375511098207 452.0638073224419Q816.3881849724959 453.4845967813992 813.2885572654171 453.4845967813992Q809.9330521144233 453.4845967813992 807.4388972629449 451.92318770885436Q804.9447424114664 450.36177863630957 803.5739821593016 447.6706345186361Q802.2032219071368 444.9794904009626 802.2032219071368 441.5902852655768ZM807.6394465938434 441.4728560900003Q807.6394465938434 443.52864928838386 808.4661848262742 445.17469963480585Q809.2929230587049 446.8207499812279 810.8006987267202 447.7899319926314Q812.3084743947354 448.7591140040349 814.3432485003569 448.7591140040349Q816.4450753948988 448.7591140040349 817.9863774573743 447.8234583870916Q819.5276795198497 446.88780277014826 820.3491629790899 445.2417524237262Q821.1706464383301 443.5957020773042 821.1706464383301 441.4540083424872Q821.1706464383301 439.31231460767015 820.3585868528464 437.7144693026554Q819.5465272673628 436.1166239976406 818.0240729524005 435.1956470276443Q816.5016186374381 434.27467005764805 814.351586701489 434.27467005764805Q812.2791171008413 434.27467005764805 810.771341432826 435.22391864891404Q809.2635657648108 436.17316724017996 808.4515061793271 437.79511506589836Q807.6394465938434 439.41706289161675 807.6394465938434 441.4728560900003Z M843.4587463304672 454.60781779078104Q839.9564547100027 454.60781779078104 837.2589701465143 453.0159657517176Q834.561485583026 451.42411371265416 833.0314315596924 448.61245699146264Q831.5013775363587 445.80080027027105 831.5013775363587 442.1267075769396Q831.5013775363587 438.4232575897141 832.9926503920417 435.602176994766Q834.4839232477245 432.7810963998179 837.1384575429963 431.17982048699787Q839.792991838268 429.5785445741779 843.2575879637062 429.5785445741779Q846.7642222746686 429.5785445741779 849.3328560335068 431.06039355610426Q851.901489792345 432.5422425380306 853.3110312121605 435.2219650266304Q854.720572631976 437.9016875152302 854.720572631976 441.5529369504143V443.3009993327049L834.3693597771243 443.35971392049316L834.4657698599387 439.8545565950525H849.3430625330576Q849.3430625330576 437.2101405332646 847.7022669598261 435.6249761198798Q846.0614713865947 434.039811706495 843.2869452576003 434.039811706495Q841.1430801775343 434.039811706495 839.6604927028473 434.9513648027347Q838.1779052281601 435.86291789897444 837.4015433823854 437.6452451684861Q836.6251815366109 439.42757243799775 836.6251815366109 441.99694468959683Q836.6251815366109 445.99327325603633 838.385404040736 448.06991195725016Q840.1456265448612 450.1465506584639 843.5468182121497 450.1465506584639Q846.0447949843305 450.1465506584639 847.6500664077846 449.1878781934414Q849.2553378312389 448.22920572841895 849.7540646475755 446.4376281750825H854.7792872197642Q854.0018397013653 450.2690168842656 851.005527425745 452.43841733752333Q848.0092151501248 454.60781779078104 843.4587463304672 454.60781779078104Z M864.9697458840691 454.0H859.5817262387696V430.2744342466413H864.535900511404L865.0179509254763 433.5538540478554Q866.145514625356 431.67203326758766 868.2014814136714 430.6252889208828Q870.2574482019868 429.5785445741779 872.7137339685072 429.5785445741779Q877.2490033714221 429.5785445741779 879.5032186884888 432.21514320462916Q881.7574340055555 434.85174183508036 881.7574340055555 439.4250539128852V454.0H876.3694143602561V440.680903514586Q876.3694143602561 437.5105746878164 874.9392010275421 435.9953729013617Q873.5089876948283 434.48017111490697 871.109592350711 434.48017111490697Q868.2136415355059 434.48017111490697 866.5916937097875 436.33354668397317Q864.9697458840691 438.1869222530394 864.9697458840691 441.2818600897566Z M885.2982037468405 430.2744342466413H899.9205722495683V434.7860777656146H885.2982037468405ZM895.303397820854 454.0H889.9153781755547V422.8591960710582H895.303397820854Z M901.8702284445507 446.9113403880229H907.0045419911839Q907.0632565789722 448.54162641487335 908.2335969571368 449.4908750061393Q909.4039373353013 450.44012359740526 911.4680687348169 450.44012359740526Q913.6746439133054 450.44012359740526 914.8333890724646 449.60721850909135Q915.9921342316236 448.7743134207775 915.9921342316236 447.38722394621215Q915.9921342316236 446.40462255041786 915.3844900307744 445.7047373673202Q914.7768458299252 445.00485218422256 913.0689974677733 444.60253545070043L908.8414588809512 443.6195868750425Q905.6660930039565 442.8776635064208 904.1025125861627 441.27221849303476Q902.5389321683689 439.66677347964867 902.5389321683689 436.89989119205916Q902.5389321683689 434.6194020090399 903.7326365744763 432.9824283565108Q904.9263409805836 431.34545470398166 907.0129243253494 430.46199963907975Q909.0995076701153 429.5785445741779 911.7844849319056 429.5785445741779Q914.4295953534207 429.5785445741779 916.4145138421816 430.5154594536775Q918.3994323309424 431.45237433317715 919.5197435023144 433.15223167406054Q920.6400546736864 434.852089014944 920.6589024211996 437.17861189412156H915.5245888745663Q915.4868933795402 435.529478119758 914.4528299244653 434.59382250281465Q913.4187664693903 433.6581668858713 911.5789838746467 433.6581668858713Q909.7225248776389 433.6581668858713 908.69263052313 434.46805512610604Q907.6627361686211 435.27794336634076 907.6627361686211 436.6943901348002Q907.6627361686211 438.8212316327384 910.8689363250317 439.58816960475633L915.1069844582347 440.5711181804143Q918.1145447729969 441.2543269612478 919.6152415024362 442.76336189181933Q921.1159382318757 444.2723968223909 921.1159382318757 446.9762218316943Q921.1159382318757 449.3049160561208 919.8792835575516 451.03413069089834Q918.6426288832275 452.7633453256759 916.4397020355096 453.6855815582285Q914.2367751877917 454.60781779078104 911.3296204664783 454.60781779078104Q906.990819559963 454.60781779078104 904.4305240022568 452.48770805155505Q901.8702284445507 450.36759831232905 901.8702284445507 446.9113403880229Z M938.830814312275 454.0V430.2744342466413H944.2188339575745V454.0ZM941.4954668410306 425.2139464384719Q940.0888352592249 425.2139464384719 939.1046274210107 424.22973860025763Q938.1204195827964 423.2455307620434 938.1204195827964 421.8577469277508Q938.1204195827964 420.451115345945 939.1046274210107 419.47216228092134Q940.0888352592249 418.4932092158976 941.4954668410306 418.4932092158976Q942.8727411289423 418.4932092158976 943.8569489671565 419.47216228092134Q944.8411568053707 420.451115345945 944.8411568053707 421.8577469277508Q944.8411568053707 423.2455307620434 943.8569489671565 424.22973860025763Q942.8727411289423 425.2139464384719 941.4954668410306 425.2139464384719Z M955.884453978127 454.0H950.4964343328276V430.2744342466413H955.4506086054619L955.9326590195342 433.5538540478554Q957.0602227194139 431.67203326758766 959.1161895077294 430.6252889208828Q961.1721562960447 429.5785445741779 963.6284420625651 429.5785445741779Q968.16371146548 429.5785445741779 970.4179267825467 432.21514320462916Q972.6721420996134 434.85174183508036 972.6721420996134 439.4250539128852V454.0H967.284122454314V440.680903514586Q967.284122454314 437.5105746878164 965.8539091216 435.9953729013617Q964.4236957888862 434.48017111490697 962.0243004447689 434.48017111490697Q959.1283496295638 434.48017111490697 957.5064018038454 436.33354668397317Q955.884453978127 438.1869222530394 955.884453978127 441.2818600897566Z M989.8444290127668 446.9113403880229H994.9787425594Q995.0374571471883 448.54162641487335 996.2077975253528 449.4908750061393Q997.3781379035174 450.44012359740526 999.4422693030331 450.44012359740526Q1001.6488444815216 450.44012359740526 1002.8075896406806 449.60721850909135Q1003.9663347998397 448.7743134207775 1003.9663347998397 447.38722394621215Q1003.9663347998397 446.40462255041786 1003.3586905989905 445.7047373673202Q1002.7510463981413 445.00485218422256 1001.0431980359895 444.60253545070043L996.8156594491674 443.6195868750425Q993.6402935721726 442.8776635064208 992.0767131543788 441.27221849303476Q990.513132736585 439.66677347964867 990.513132736585 436.89989119205916Q990.513132736585 434.6194020090399 991.7068371426924 432.9824283565108Q992.9005415487998 431.34545470398166 994.9871248935656 430.46199963907975Q997.0737082383314 429.5785445741779 999.7586855001217 429.5785445741779Q1002.4037959216369 429.5785445741779 1004.3887144103977 430.5154594536775Q1006.3736328991586 431.45237433317715 1007.4939440705306 433.15223167406054Q1008.6142552419026 434.852089014944 1008.6331029894158 437.17861189412156H1003.4987894427825Q1003.4610939477564 435.529478119758 1002.4270304926814 434.59382250281465Q1001.3929670376065 433.6581668858713 999.5531844428629 433.6581668858713Q997.696725445855 433.6581668858713 996.6668310913461 434.46805512610604Q995.6369367368372 435.27794336634076 995.6369367368372 436.6943901348002Q995.6369367368372 438.8212316327384 998.8431368932478 439.58816960475633L1003.0811850264508 440.5711181804143Q1006.088745341213 441.2543269612478 1007.5894420706525 442.76336189181933Q1009.0901388000918 444.2723968223909 1009.0901388000918 446.9762218316943Q1009.0901388000918 449.3049160561208 1007.8534841257677 451.03413069089834Q1006.6168294514437 452.7633453256759 1004.4139026037258 453.6855815582285Q1002.2109757560079 454.60781779078104 999.3038210346945 454.60781779078104Q994.9650201281792 454.60781779078104 992.404724570473 452.48770805155505Q989.8444290127668 450.36759831232905 989.8444290127668 446.9113403880229Z M1016.6902061200356 430.2744342466413 1024.62449584499 452.58798418810545 1021.5745501648402 457.87012574380026 1010.9415607468744 430.2744342466413ZM1011.5870740326817 464.87184327975297V460.38738570942485H1014.9305926517728Q1016.0708372432825 460.38738570942485 1016.965713937258 460.1400200565737Q1017.8605906312335 459.8926544037225 1018.5709853607123 459.188426530127Q1019.281380090191 458.4841986565315 1019.8011259992895 457.0507283059442L1029.6809881425252 430.2744342466413H1035.2639992987024L1023.7926764293005 459.2920450084156Q1022.5244931158334 462.5032822150513 1020.5961178696118 463.9496070472004Q1018.6677426233904 465.39593187934946 1015.8066215982353 465.39593187934946Q1014.6265101664505 465.39593187934946 1013.585759085697 465.2649097294503Q1012.5450080049434 465.1338875795512 1011.5870740326817 464.87184327975297Z M1044.0996797533792 454.0H1038.71166010808V430.2744342466413H1043.6658343807142L1044.1478847947865 433.5538540478554Q1045.2754484946663 431.67203326758766 1047.3314152829817 430.6252889208828Q1049.387382071297 429.5785445741779 1051.8436678378173 429.5785445741779Q1056.3789372407323 429.5785445741779 1058.633152557799 432.21514320462916Q1060.8873678748657 434.85174183508036 1060.8873678748657 439.4250539128852V454.0H1055.4993482295663V440.680903514586Q1055.4993482295663 437.5105746878164 1054.0691348968526 435.9953729013617Q1052.6389215641386 434.48017111490697 1050.2395262200212 434.48017111490697Q1047.343575404816 434.48017111490697 1045.7216275790975 436.33354668397317Q1044.0996797533792 438.1869222530394 1044.0996797533792 441.2818600897566Z M1065.3922384442956 442.1161980305586Q1065.3922384442956 438.4232575897141 1066.8981899469254 435.602176994766Q1068.4041414495555 432.7810963998179 1071.0534209716366 431.17982048699787Q1073.7027004937179 429.5785445741779 1077.2049921141825 429.5785445741779Q1081.9149282949404 429.5785445741779 1084.9677838131001 432.043515721694Q1088.0206393312596 434.5084868692102 1088.5277043487283 438.66714850172656H1083.0914796620216Q1082.573905098172 436.55264071555473 1081.0641316748397 435.4776247475802Q1079.5543582515072 434.4026087796056 1077.3811358775472 434.4026087796056Q1075.4427718547402 434.4026087796056 1073.9413366325398 435.3476882703055Q1072.4399014103394 436.2927677610054 1071.6153345231578 438.0100399969138Q1070.790767635976 439.7273122328222 1070.790767635976 442.0973502830455Q1070.790767635976 444.4402023846236 1071.572384254941 446.16272939372254Q1072.354000873906 447.8852564028214 1073.7978071809425 448.8250811203308Q1075.241613487979 449.7649058378402 1077.20933480468 449.7649058378402Q1079.5061532101 449.7649058378402 1081.0641316748397 448.65636347540544Q1082.6221101395793 447.5478211129707 1083.129175157048 445.5380616107455H1088.5653998437544Q1088.1735926566134 448.2357197641657 1086.6246908857668 450.27101463958275Q1085.07578911492 452.3063095149997 1082.6506848076792 453.4570636528904Q1080.2255805004381 454.60781779078104 1077.20933480468 454.60781779078104Q1073.6461572511785 454.60781779078104 1070.9863681827164 453.0453230456117Q1068.3265791142542 451.4828283004424 1066.8594087792749 448.6805954530074Q1065.3922384442956 445.8783626055724 1065.3922384442956 442.1161980305586Z"/>
</svg>
