<svg xmlns="http://www.w3.org/2000/svg" viewBox="0 -4 1168 476" role="img" aria-label="Cyncia logo">
  <defs>
    <linearGradient id="cg" x1="0" y1="0" x2="0" y2="512" gradientUnits="userSpaceOnUse">
      <stop offset="0" stop-color="#1e78f0"/>
      <stop offset="1" stop-color="#8629e6"/>
    </linearGradient>
  </defs>

  <!-- C mark (same geometry as favicon-rounded.svg, scaled into place) -->
  <g transform="translate(46.4 33.6) scale(0.7716)">
    <path d="M 366.1 98.7 A 192 192 0 1 0 366.1 413.3" fill="none" stroke="url(#cg)" stroke-width="46" stroke-linecap="round"/>
    <path d="M 344.9 137.3 L 396.4 63.7 L 433.1 144.3 Z" fill="url(#cg)" stroke="url(#cg)" stroke-width="18" stroke-linejoin="round"/>
    <path d="M 344.9 374.7 L 396.4 448.3 L 433.1 367.7 Z" fill="url(#cg)" stroke="url(#cg)" stroke-width="18" stroke-linejoin="round"/>
    <path d="M 101 188 L 252 188" fill="none" stroke="url(#cg)" stroke-width="22" stroke-linecap="round"/>
    <path d="M 87 256 L 332 256" fill="none" stroke="url(#cg)" stroke-width="22" stroke-linecap="round"/>
    <path d="M 101 324 L 252 324" fill="none" stroke="url(#cg)" stroke-width="22" stroke-linecap="round"/>
    <circle cx="252" cy="188" r="19" fill="url(#cg)"/>
    <circle cx="332" cy="256" r="27" fill="url(#cg)"/>
    <circle cx="252" cy="324" r="19" fill="url(#cg)"/>
  </g>

  <!-- yncia wordmark -->
  <path fill="#f4f8ff" d="M448.8385198714999 187.50092714043868 496.9227018493261 323.87114722654565 478.43911375377655 356.15318250850356 414.0 187.50092714043868ZM417.9120046506795 398.944480346071V371.5375250459623H438.17473304853263Q445.0849582026431 371.5375250459623 450.5081801030865 370.0257392203293Q455.9314020035298 368.5139533946963 460.23660771600925 364.2100344591201Q464.5418134284887 359.9061155235439 467.691629951665 351.14539982795475L527.5665659168882 187.50092714043868H561.4012926188302L491.88162601982856 364.84330324540787Q484.1960537329723 384.4689175365634 472.5095197803214 393.30819394903864Q460.8229858276705 402.14747036151385 443.4837319305699 402.14747036151385Q436.33190173440477 402.14747036151385 430.02463717823673 401.34672285765316Q423.71737262206864 400.5459753537924 417.9120046506795 398.944480346071Z M619.222529701384 332.5007425862382H586.5695101992302V187.50092714043868H616.5932962636563L619.5146667500205 207.54324229062746Q626.3480418870641 196.0424136622412 638.8078189580724 189.645190570958Q651.2675960290807 183.24796747967483 666.1534265042955 183.24796747967483Q693.6385230722154 183.24796747967483 707.2997458508758 199.36165339951236Q720.960968629536 215.47533931934993 720.960968629536 243.42533276318886V332.5007425862382H688.3079491273821V251.10051161318228Q688.3079491273821 231.7249106448885 679.6404261932203 222.46468976404492Q670.9729032590583 213.20446888320134 656.4318458534501 213.20446888320134Q638.8815129535567 213.20446888320134 629.0520213274704 224.531453380012Q619.222529701384 235.85843787682268 619.222529701384 254.77328356713824Z M742.9606288172824 259.8723757739739Q742.9606288172824 237.30281145077208 752.087147839457 220.0616560710613Q761.2136668616315 202.8205006913505 777.2690975385862 193.03423408551265Q793.3245282155408 183.24796747967483 814.5494687528358 183.24796747967483Q843.0930985256721 183.24796747967483 861.5943211146971 198.31274465652518Q880.0955437037221 213.3775218333755 883.1685102098315 238.79336124833407H850.2233536590413Q847.0866961411075 225.8704559764032 837.9370151300304 219.30044965587817Q828.7873341189534 212.73044333535313 815.6169529342179 212.73044333535313Q803.8698839913253 212.73044333535313 794.77073498683 218.50633728695243Q785.6715859823347 224.28223123855173 780.6744626567977 234.77741436149432Q775.6773393312606 245.27259748443691 775.6773393312606 259.7571869544793Q775.6773393312606 274.0756283302149 780.4141711140734 284.60292622549866Q785.1510028968862 295.1302241207824 793.900903343542 300.8740033000405Q802.6508037901979 306.6177824792987 814.5757867633208 306.6177824792987Q828.495197070317 306.6177824792987 837.9370151300304 299.8428781571907Q847.3788331897439 293.0679738350827 850.4517996958534 280.7852422053069H883.3969562466436Q881.022486856213 297.27209602570184 871.6356762913142 309.7108881869159Q862.2488657264155 322.14968034812995 847.5520042722852 329.1825637513008Q832.855142818155 336.2154471544716 814.5757867633208 336.2154471544716Q792.9818591603226 336.2154471544716 776.8627374715436 326.66619332255783Q760.7436157827647 317.1169394906441 751.8521223000236 299.99097293042786Q742.9606288172824 282.86500637021163 742.9606288172824 259.8723757739739Z M905.8140720253045 332.5007425862382V187.50092714043868H938.4670915274584V332.5007425862382ZM921.9626677461512 156.5735382689463Q913.4380573147249 156.5735382689463 907.473461813775 150.55850973875533Q901.5088663128251 144.5434812085644 901.5088663128251 136.06198062210905Q901.5088663128251 127.46529121615913 907.473461813775 121.48237745830932Q913.4380573147249 115.4994637004595 921.9626677461512 115.4994637004595Q930.3093641473471 115.4994637004595 936.2739596482969 121.48237745830932Q942.2385551492467 127.46529121615913 942.2385551492467 136.06198062210905Q942.2385551492467 144.5434812085644 936.2739596482969 150.55850973875533Q930.3093641473471 156.5735382689463 921.9626677461512 156.5735382689463Z M1009.9349776252138 336.2154471544716Q987.0845968197489 336.2154471544716 973.9571161317797 323.918384352492Q960.8296354438105 311.62132155051245 960.8296354438105 291.49726297643633Q960.8296354438105 271.51493376159465 974.7632567632434 259.5512280505626Q988.6968780826762 247.58752233953052 1014.3038743495175 245.52527205383086L1058.0586366187677 242.05421539445655V238.54546973013987Q1058.0586366187677 227.8398143730131 1054.1092589667487 221.36615236951147Q1050.15988131473 214.89249036600984 1043.2133351664745 211.98516843657214Q1036.266789018219 209.07784650713444 1026.9447214723386 209.07784650713444Q1010.5739917578451 209.07784650713444 1001.7538207967436 215.70544723740676Q992.9336498356423 222.33304796767905 992.9336498356423 234.53827978290266H964.9063951194778Q964.9063951194778 218.89755850857952 972.7501429287006 207.3879729405907Q980.5938907379234 195.87838737260188 995.0238811467082 189.56317742613834Q1009.4538715554928 183.24796747967483 1028.4822567325875 183.24796747967483Q1047.4095778965188 183.24796747967483 1061.1344916870034 189.92864928942697Q1074.859405477488 196.60933109917912 1082.429702738744 210.01501885856075Q1090.0 223.4207066179424 1090.0 243.48053564733624V332.5007425862382H1061.5774402076472L1058.770292739689 310.29213679605755Q1053.779748916773 322.0366133333029 1040.3798696880312 329.12603024388727Q1026.9799904592896 336.2154471544716 1009.9349776252138 336.2154471544716ZM1020.2276733680894 311.03901203903695Q1037.7648472627404 311.03901203903695 1048.0006989558692 300.73094331754Q1058.236550648998 290.42287459604296 1058.236550648998 272.57126882091836V264.7320636812856L1025.9693503276542 267.48544688395265Q1008.735368472494 268.89425325762727 1001.3758827545747 274.8230250336635Q994.0163970366555 280.75179680969967 994.0163970366555 290.126145607704Q994.0163970366555 300.6146935957116 1000.9245181763775 305.8268528173743Q1007.8326393160996 311.03901203903695 1020.2276733680894 311.03901203903695Z"/>
</svg>
