<svg xmlns="http://www.w3.org/2000/svg" viewBox="0 -10 1168 482" role="img" aria-label="Cyncia logo">
  <defs>
    <linearGradient id="cg" x1="0" y1="0" x2="0" y2="512" gradientUnits="userSpaceOnUse">
      <stop offset="0" stop-color="#1e78f0"/>
      <stop offset="1" stop-color="#8629e6"/>
    </linearGradient>
  </defs>

  <!-- C mark (same geometry as favicon-rounded.svg, scaled into place) -->
  <g transform="translate(46.4 33.6) scale(0.7716)">
    <path d="M 366.1 98.7 A 192 192 0 1 0 366.1 413.3" fill="none" stroke="url(#cg)" stroke-width="46" stroke-linecap="round"/>
    <path d="M 344.9 137.3 L 396.4 63.7 L 433.1 144.3 Z" fill="url(#cg)" stroke="url(#cg)" stroke-width="18" stroke-linejoin="round"/>
    <path d="M 344.9 374.7 L 396.4 448.3 L 433.1 367.7 Z" fill="url(#cg)" stroke="url(#cg)" stroke-width="18" stroke-linejoin="round"/>
    <path d="M 101 188 L 252 188" fill="none" stroke="url(#cg)" stroke-width="22" stroke-linecap="round"/>
    <path d="M 87 256 L 332 256" fill="none" stroke="url(#cg)" stroke-width="22" stroke-linecap="round"/>
    <path d="M 101 324 L 252 324" fill="none" stroke="url(#cg)" stroke-width="22" stroke-linecap="round"/>
    <circle cx="252" cy="188" r="19" fill="url(#cg)"/>
    <circle cx="332" cy="256" r="27" fill="url(#cg)"/>
    <circle cx="252" cy="324" r="19" fill="url(#cg)"/>
  </g>

  <!-- yncia wordmark -->
  <path fill="#f4f8ff" d="M555.0207200692472 186.02104612553035 477.4554988101157 386.8363357476325H442.96431467593413L465.2118918858605 331.5256200691106L403.80068891753945 186.02104612553035H438.2660791118712L482.151516310003 295.9412020459669L522.7873821650279 186.02104612553035Z M611.4003218050457 250.79137217303477V333.31591788261994H579.5936929404364V186.02104612553035H609.0346311483464V209.8627861194082Q617.2101473858133 197.88089959098545 629.8297519630808 190.56443353533012Q642.4493565403483 183.24796747967477 658.4650677972343 183.24796747967477Q682.3116367388643 183.24796747967477 696.8444289933709 197.47830049912972Q711.3772212478776 211.7086335185847 711.3772212478776 238.1261004919932V333.31591788261994H679.5705923832684V248.24237060354932Q679.5705923832684 229.80034822582144 671.4091984173074 219.91047398808712Q663.2478044513463 210.0205997503528 647.140705372898 210.0205997503528Q637.3779853415645 210.0205997503528 629.2165913756033 214.90452033773613Q621.0551974096422 219.78844092511946 616.227759607344 228.8463915690971Q611.4003218050457 237.90434221307476 611.4003218050457 250.79137217303477Z M812.0472519959419 336.2154471544715Q790.472535286287 336.2154471544715 773.9984270810224 326.49746858768026Q757.5243188757579 316.779490020889 748.2152108559723 299.43554517799487Q738.9061028361866 282.0916003351008 738.9061028361866 259.6052566910771Q738.9061028361866 237.42062752423254 748.3746431624088 220.20313330733447Q757.8431834886311 202.9856390904364 774.397007847114 193.1168032850556Q790.9508322055968 183.24796747967477 812.0472519959419 183.24796747967477Q831.4626295676962 183.24796747967477 846.8828621438604 191.03478551914972Q862.3030947200245 198.82160355862467 872.2112410557818 212.9598870894597Q882.1193873915391 227.09817062029475 884.7054355690498 246.37885295225936H851.2786897002247Q848.95524958855 229.37218312264633 838.5008781181016 219.69639143649957Q828.0465066476532 210.0205997503528 812.2066843023784 210.0205997503528Q799.9399665804215 210.0205997503528 790.8454383820217 216.20342773507238Q781.7509101836221 222.38625571979196 776.7101178615187 233.42638889778718Q771.6693255394154 244.4665220757824 771.6693255394154 259.6052566910771Q771.6693255394154 274.74399130637187 776.6304017083005 286.0614323489526Q781.5914778771855 297.37887339153343 790.7657222288035 303.4862727569582Q799.9399665804215 309.59367212238305 812.2066843023784 309.59367212238305Q828.3395773206767 309.59367212238305 838.6345164846884 299.93008374253304Q848.9294556487002 290.26649536268303 851.4123280668115 272.95811105589087H884.7054355690498Q882.2530257581259 292.5405078650346 872.5043117288052 306.67879139586967Q862.7555976994845 320.8170749267047 847.3482620932452 328.5162610405881Q831.9409264870061 336.2154471544715 812.0472519959419 336.2154471544715Z M939.1741998125062 333.31591788261994H907.367570947897V186.02104612553035H939.1741998125062ZM945.6475485588702 151.86336555631974Q945.6475485588702 160.22257959301677 939.3816603633927 165.76211054018535Q933.1157721679153 171.30164148735395 923.0317369205467 171.30164148735395Q913.0813400397649 171.30164148735395 906.7486326609941 165.76211054018535Q900.4159252822233 160.22257959301677 900.4159252822233 151.86336555631974Q900.4159252822233 143.35329428103316 906.7486326609941 137.94021395986059Q913.0813400397649 132.527133638688 923.0317369205467 132.527133638688Q933.1157721679153 132.527133638688 939.3816603633927 137.94021395986059Q945.6475485588702 143.35329428103316 945.6475485588702 151.86336555631974Z M1063.5882756143856 333.31591788261994V311.4353219904061Q1056.3177653358384 323.2175380550523 1043.8036708516393 329.6532672917639Q1031.2895763674398 336.0889965284755 1014.3126026045967 336.0889965284755Q990.0955811703939 336.0889965284755 975.4701757927439 323.88965926822516Q960.8447704150941 311.6903220079748 960.8447704150941 291.5000786814446Q960.8447704150941 269.84565863117757 978.8146945926628 258.653508815867Q996.7846187702316 247.4613590005564 1031.2895763674398 247.4613590005564Q1038.1380462737143 247.4613590005564 1044.5340132005288 247.81409548443673Q1050.9299801273432 248.16683196831707 1059.787694199757 249.12520618806974V238.7539360589449Q1059.787694199757 223.7372345066178 1051.5336871106526 215.37034474258985Q1043.2796800215483 207.00345497856193 1028.3190696953436 207.00345497856193Q1012.8496998426417 207.00345497856193 1003.7012494308735 215.43357005558786Q994.5527990191055 223.8636851326138 993.7556374869224 238.6274854329489H964.926634564909Q965.7237960970921 221.78934309403886 973.8735183947092 209.40032989479448Q982.0232406923262 197.01131669555014 996.0472734203356 190.12964208761247Q1010.0713061483451 183.24796747967477 1028.3448636351934 183.24796747967477Q1057.5347491761183 183.24796747967477 1073.7673745880593 198.04291075308342Q1090.0 212.83785402649207 1090.0 239.3529474502747V333.31591788261994ZM991.0570762153372 290.61934186250085Q991.0570762153372 301.49641449560977 999.1258570581551 308.1218196713154Q1007.194637900973 314.747224847021 1020.6898948620608 314.747224847021Q1038.7711068321232 314.747224847021 1049.27940051594 305.115828823033Q1059.787694199757 295.4844327990449 1059.787694199757 279.3784888379407V267.8003608000995Q1051.5465840805775 266.8175799677533 1045.2537929131622 266.464843483873Q1038.9610017457471 266.11210699999265 1033.1769701048293 266.11210699999265Q1012.155714069858 266.11210699999265 1001.6063951425976 272.14407774612266Q991.0570762153372 278.17604849225273 991.0570762153372 290.61934186250085Z"/>
</svg>
