<svg xmlns="http://www.w3.org/2000/svg" viewBox="0 -3 1168 535" role="img" aria-label="Cyncia logo">
  <defs>
    <linearGradient id="cg" x1="0" y1="0" x2="0" y2="512" gradientUnits="userSpaceOnUse">
      <stop offset="0" stop-color="#1e78f0"/>
      <stop offset="1" stop-color="#8629e6"/>
    </linearGradient>
  </defs>

  <!-- C mark (same geometry as favicon-rounded.svg, scaled into place) -->
  <g transform="translate(46.4 33.6) scale(0.7716)">
    <path d="M 366.1 98.7 A 192 192 0 1 0 366.1 413.3" fill="none" stroke="url(#cg)" stroke-width="46" stroke-linecap="round"/>
    <path d="M 344.9 137.3 L 396.4 63.7 L 433.1 144.3 Z" fill="url(#cg)" stroke="url(#cg)" stroke-width="18" stroke-linejoin="round"/>
    <path d="M 344.9 374.7 L 396.4 448.3 L 433.1 367.7 Z" fill="url(#cg)" stroke="url(#cg)" stroke-width="18" stroke-linejoin="round"/>
    <path d="M 101 188 L 252 188" fill="none" stroke="url(#cg)" stroke-width="22" stroke-linecap="round"/>
    <path d="M 87 256 L 332 256" fill="none" stroke="url(#cg)" stroke-width="22" stroke-linecap="round"/>
    <path d="M 101 324 L 252 324" fill="none" stroke="url(#cg)" stroke-width="22" stroke-linecap="round"/>
    <circle cx="252" cy="188" r="19" fill="url(#cg)"/>
    <circle cx="332" cy="256" r="27" fill="url(#cg)"/>
    <circle cx="252" cy="324" r="19" fill="url(#cg)"/>
  </g>

  <!-- yncia wordmark -->
  <path fill="#000000" d="M555.0207200692472 186.02104612553035 477.4554988101157 386.8363357476325H442.96431467593413L465.2118918858605 331.5256200691106L403.80068891753945 186.02104612553035H438.2660791118712L482.151516310003 295.9412020459669L522.7873821650279 186.02104612553035Z M611.4003218050457 250.79137217303477V333.31591788261994H579.5936929404364V186.02104612553035H609.0346311483464V209.8627861194082Q617.2101473858133 197.88089959098545 629.8297519630808 190.56443353533012Q642.4493565403483 183.24796747967477 658.4650677972343 183.24796747967477Q682.3116367388643 183.24796747967477 696.8444289933709 197.47830049912972Q711.3772212478776 211.7086335185847 711.3772212478776 238.1261004919932V333.31591788261994H679.5705923832684V248.24237060354932Q679.5705923832684 229.80034822582144 671.4091984173074 219.91047398808712Q663.2478044513463 210.0205997503528 647.140705372898 210.0205997503528Q637.3779853415645 210.0205997503528 629.2165913756033 214.90452033773613Q621.0551974096422 219.78844092511946 616.227759607344 228.8463915690971Q611.4003218050457 237.90434221307476 611.4003218050457 250.79137217303477Z M812.0472519959419 336.2154471544715Q790.472535286287 336.2154471544715 773.9984270810224 326.49746858768026Q757.5243188757579 316.779490020889 748.2152108559723 299.43554517799487Q738.9061028361866 282.0916003351008 738.9061028361866 259.6052566910771Q738.9061028361866 237.42062752423254 748.3746431624088 220.20313330733447Q757.8431834886311 202.9856390904364 774.397007847114 193.1168032850556Q790.9508322055968 183.24796747967477 812.0472519959419 183.24796747967477Q831.4626295676962 183.24796747967477 846.8828621438604 191.03478551914972Q862.3030947200245 198.82160355862467 872.2112410557818 212.9598870894597Q882.1193873915391 227.09817062029475 884.7054355690498 246.37885295225936H851.2786897002247Q848.95524958855 229.37218312264633 838.5008781181016 219.69639143649957Q828.0465066476532 210.0205997503528 812.2066843023784 210.0205997503528Q799.9399665804215 210.0205997503528 790.8454383820217 216.20342773507238Q781.7509101836221 222.38625571979196 776.7101178615187 233.42638889778718Q771.6693255394154 244.4665220757824 771.6693255394154 259.6052566910771Q771.6693255394154 274.74399130637187 776.6304017083005 286.0614323489526Q781.5914778771855 297.37887339153343 790.7657222288035 303.4862727569582Q799.9399665804215 309.59367212238305 812.2066843023784 309.59367212238305Q828.3395773206767 309.59367212238305 838.6345164846884 299.93008374253304Q848.9294556487002 290.26649536268303 851.4123280668115 272.95811105589087H884.7054355690498Q882.2530257581259 292.5405078650346 872.5043117288052 306.67879139586967Q862.7555976994845 320.8170749267047 847.3482620932452 328.5162610405881Q831.9409264870061 336.2154471544715 812.0472519959419 336.2154471544715Z M939.1741998125062 333.31591788261994H907.367570947897V186.02104612553035H939.1741998125062ZM945.6475485588702 151.86336555631974Q945.6475485588702 160.22257959301677 939.3816603633927 165.76211054018535Q933.1157721679153 171.30164148735395 923.0317369205467 171.30164148735395Q913.0813400397649 171.30164148735395 906.7486326609941 165.76211054018535Q900.4159252822233 160.22257959301677 900.4159252822233 151.86336555631974Q900.4159252822233 143.35329428103316 906.7486326609941 137.94021395986059Q913.0813400397649 132.527133638688 923.0317369205467 132.527133638688Q933.1157721679153 132.527133638688 939.3816603633927 137.94021395986059Q945.6475485588702 143.35329428103316 945.6475485588702 151.86336555631974Z M1063.5882756143856 333.31591788261994V311.4353219904061Q1056.3177653358384 323.2175380550523 1043.8036708516393 329.6532672917639Q1031.2895763674398 336.0889965284755 1014.3126026045967 336.0889965284755Q990.0955811703939 336.0889965284755 975.4701757927439 323.88965926822516Q960.8447704150941 311.6903220079748 960.8447704150941 291.5000786814446Q960.8447704150941 269.84565863117757 978.8146945926628 258.653508815867Q996.7846187702316 247.4613590005564 1031.2895763674398 247.4613590005564Q1038.1380462737143 247.4613590005564 1044.5340132005288 247.81409548443673Q1050.9299801273432 248.16683196831707 1059.787694199757 249.12520618806974V238.7539360589449Q1059.787694199757 223.7372345066178 1051.5336871106526 215.37034474258985Q1043.2796800215483 207.00345497856193 1028.3190696953436 207.00345497856193Q1012.8496998426417 207.00345497856193 1003.7012494308735 215.43357005558786Q994.5527990191055 223.8636851326138 993.7556374869224 238.6274854329489H964.926634564909Q965.7237960970921 221.78934309403886 973.8735183947092 209.40032989479448Q982.0232406923262 197.01131669555014 996.0472734203356 190.12964208761247Q1010.0713061483451 183.24796747967477 1028.3448636351934 183.24796747967477Q1057.5347491761183 183.24796747967477 1073.7673745880593 198.04291075308342Q1090.0 212.83785402649207 1090.0 239.3529474502747V333.31591788261994ZM991.0570762153372 290.61934186250085Q991.0570762153372 301.49641449560977 999.1258570581551 308.1218196713154Q1007.194637900973 314.747224847021 1020.6898948620608 314.747224847021Q1038.7711068321232 314.747224847021 1049.27940051594 305.115828823033Q1059.787694199757 295.4844327990449 1059.787694199757 279.3784888379407V267.8003608000995Q1051.5465840805775 266.8175799677533 1045.2537929131622 266.464843483873Q1038.9610017457471 266.11210699999265 1033.1769701048293 266.11210699999265Q1012.155714069858 266.11210699999265 1001.6063951425976 272.14407774612266Q991.0570762153372 278.17604849225273 991.0570762153372 290.61934186250085Z"/>

  <!-- slogan -->
  <path fill="#000000" d="M301.0619195371721 454.0H295.83438883780093V419.4159574776516H301.0619195371721V439.7286236681094L311.6975843798132 428.41551069765353H317.80407516263455L306.2420503582066 440.7859999158278L318.977045022976 454.0H312.23243010741714L301.0619195371721 441.95743515255754Z M332.95473790598476 454.4774325771954Q329.24239225258447 454.4774325771954 326.44060023175956 452.8025628886844Q323.63880821093466 451.1276932001734 322.086859815798 448.093160221193Q320.5349114206613 445.05862724221254 320.5349114206613 441.06075046038114Q320.5349114206613 437.2690277236161 322.1240450394624 434.31348817209755Q323.7131786582635 431.35794862057895 326.49300674613215 429.6458937084035Q329.27283483400083 427.93383879622803 332.8187149840173 427.93383879622803Q335.7384216621806 427.93383879622803 338.0758827344033 429.0281988850105Q340.41334380662596 430.122558973793 342.0286806826134 432.10126943796456Q343.6440175586008 434.07997990213613 344.3775073772171 436.73303102830334Q345.1109971958334 439.3860821544705 344.75263024368525 442.4992249050099H323.5852698381511V439.08048626330003H339.1886965251221Q339.05267360315463 435.69993975825656 337.31461681639325 433.7751895413672Q335.5765600296319 431.8504393244778 332.71390195527204 431.8504393244778Q330.59725028961833 431.8504393244778 329.05648524356013 432.95269302321714Q327.515720197502 434.05494672195647 326.66740407806856 436.1099459129715Q325.8190879586351 438.16494510398655 325.8190879586351 441.0649897846112Q325.8190879586351 443.99200503422804 326.64544014511233 446.0845731048105Q327.47179233158954 448.1771411753929 329.04762293919714 449.2772752120172Q330.6234535468047 450.37740924864147 332.8499248772395 450.37740924864147Q335.48446497357685 450.37740924864147 337.2225217603382 449.0508932402068Q338.9605785470996 447.7243772317721 339.5343455045801 445.33915173460764H344.739912270995Q343.7553718469937 449.61678569702826 340.6447324144723 452.0471091371118Q337.5340929819509 454.4774325771954 332.95473790598476 454.4774325771954Z M360.36186909709375 454.4774325771954Q356.64952344369345 454.4774325771954 353.84773142286855 452.8025628886844Q351.04593940204364 451.1276932001734 349.493991006907 448.093160221193Q347.94204261177026 445.05862724221254 347.94204261177026 441.06075046038114Q347.94204261177026 437.2690277236161 349.53117623057136 434.31348817209755Q351.12030984937246 431.35794862057895 353.90013793724114 429.6458937084035Q356.6799660251098 427.93383879622803 360.22584617512626 427.93383879622803Q363.1455528532896 427.93383879622803 365.4830139255123 429.0281988850105Q367.82047499773495 430.122558973793 369.4358118737224 432.10126943796456Q371.0511487497098 434.07997990213613 371.7846385683261 436.73303102830334Q372.5181283869424 439.3860821544705 372.15976143479423 442.4992249050099H350.99240102926007V439.08048626330003H366.5958277162311Q366.4598047942636 435.69993975825656 364.72174800750224 433.7751895413672Q362.98369122074087 431.8504393244778 360.121033146381 431.8504393244778Q358.0043814807273 431.8504393244778 356.4636164346691 432.95269302321714Q354.922851388611 434.05494672195647 354.07453526917755 436.1099459129715Q353.2262191497441 438.16494510398655 353.2262191497441 441.0649897846112Q353.2262191497441 443.99200503422804 354.0525713362213 446.0845731048105Q354.8789235226985 448.1771411753929 356.4547541303061 449.2772752120172Q358.03058473791367 450.37740924864147 360.2570560683485 450.37740924864147Q362.89159616468584 450.37740924864147 364.6296529514472 449.0508932402068Q366.3677097382086 447.7243772317721 366.94147669568906 445.33915173460764H372.14704346210397Q371.16250303810267 449.61678569702826 368.0518636055813 452.0471091371118Q364.9412241730599 454.4774325771954 360.36186909709375 454.4774325771954Z M401.77333741219434 441.1967733823486Q401.77333741219434 445.0416699452922 400.3722495738304 448.0432570248383Q398.97116173546647 451.04484410438437 396.44912689523085 452.7632580029049Q393.92709205499517 454.48167190142544 390.476778973458 454.48167190142544Q387.9485865294776 454.48167190142544 385.86314475704614 453.2869394907282Q383.77770298461473 452.09220708003096 382.36813649779066 449.8784537222863V463.2962676975115H377.1406057984195V428.41551069765353H381.97932696422606V432.9131485362416Q383.3931327752802 430.5244510266529 385.60535150941314 429.22914491144047Q387.8175702435461 427.93383879622803 390.476778973458 427.93383879622803Q393.90512812203895 427.93383879622803 396.4381449287527 429.6522526947486Q398.97116173546647 431.37066659326916 400.3722495738304 434.3743733349303Q401.77333741219434 437.3780800765914 401.77333741219434 441.1967733823486ZM396.36238391251896 441.1967733823486Q396.36238391251896 437.06404375555644 394.37077320235466 434.82408714062547Q392.37916249219035 432.5841305256945 389.380481495863 432.5841305256945Q387.4472526305135 432.5841305256945 385.8519614079677 433.5879301820337Q384.25667018542185 434.5917298383729 383.3166426658363 436.4983717906332Q382.3766151462508 438.40501374289346 382.3766151462508 441.2010127065787Q382.3766151462508 443.9311198713953 383.30778036147325 445.87070772308994Q384.2389455766957 447.81029557478456 385.8321171371265 448.8208378733718Q387.4252886975573 449.831380171959 389.380481495863 449.831380171959Q392.37916249219035 449.831380171959 394.37077320235466 447.6045251856212Q396.36238391251896 445.3776701992834 396.36238391251896 441.1967733823486Z M427.0865481824117 446.2616369187695Q427.0865481824117 450.065310316419 424.26741520876357 452.27349110892226Q421.4482822351154 454.48167190142544 416.27473089232427 454.48167190142544Q411.1493467396757 454.48167190142544 408.21191545278623 452.1024026254054Q405.27448416589675 449.72313334938525 404.9111105777126 445.5950075934282H409.9112906108671Q410.0211102756483 447.89161004696183 411.77612435932997 449.2283407100688Q413.5311384430116 450.5650713731757 416.3533406638832 450.5650713731757Q418.80445795991636 450.5650713731757 420.3055344642921 449.7075092934763Q421.8066109686679 448.84994721377683 421.8066109686679 447.1355903661838Q421.8066109686679 445.63162688788714 420.81591294092186 444.8576812157826Q419.82521491317584 444.083735543678 417.5320844720664 443.64522419635915L413.3049196352059 442.86183118138814Q409.80143272749024 442.19172984362257 407.8662664733282 440.3748619027019Q405.93110021916624 438.5579939617812 405.93110021916624 435.64676593207804Q405.93110021916624 433.38367530718426 407.16996187837634 431.6436811316104Q408.40882353758644 429.9036869560365 410.647830567409 428.9187628761323Q412.8868375972316 427.93383879622803 415.8851540469538 427.93383879622803Q418.9975294856873 427.93383879622803 421.3459725243881 428.9779120327529Q423.6944155630889 430.0219852692778 425.09511974554994 431.9656301719Q426.4958239280109 433.90927507452216 426.6927320128112 436.5796671535126H421.6925519796566Q421.48215861036033 434.3574351473078 419.935034577957 433.1039372358928Q418.3879105455537 431.8504393244778 415.91135730414015 431.8504393244778Q413.6976039463955 431.8504393244778 412.33640603231436 432.7320849992485Q410.97520811823324 433.6137306740192 410.97520811823324 435.1835859511846Q410.97520811823324 436.6393822393387 411.97476845034237 437.39386729650505Q412.97432878245144 438.1483523536713 415.1668855190457 438.5868637009902L419.62564034635295 439.4226632303338Q423.4046451104278 440.11896782528567 425.24559664641976 441.81541779085Q427.0865481824117 443.5118677564143 427.0865481824117 446.2616369187695Z M463.9186614215462 428.41551069765353 451.1705460188858 463.2962676975115H445.5017992715774L449.15826639818084 453.6890329261885L439.0651204012023 428.41551069765353H444.7296278242806L451.94235291957744 447.50817169603823L458.6209995990762 428.41551069765353Z M478.1044457384337 454.48167190142544Q475.36816186057456 454.48167190142544 473.06538269399834 453.49000517927317Q470.76260352742213 452.4983384571209 469.06403389974275 450.68782950254536Q467.36546427206343 448.87732054796976 466.4177254158236 446.4558594122493Q465.4699865595838 444.0343982765288 465.4699865595838 441.1967733823486Q465.4699865595838 438.35914848816844 466.4177254158236 435.9486693189261Q467.36546427206343 433.5381901496837 469.06403389974275 431.73866316158626Q470.76260352742213 429.93913617348886 473.06538269399834 428.9474694513366Q475.36816186057456 427.95580272918426 478.1044457384337 427.95580272918426Q480.84072961629283 427.95580272918426 483.14350878286905 428.9474694513366Q485.44628794944526 429.93913617348886 487.14485757712464 431.73866316158626Q488.843427204804 433.5381901496837 489.7911660610438 435.9486693189261Q490.7389049172836 438.35914848816844 490.7389049172836 441.1967733823486Q490.7389049172836 444.0343982765288 489.7911660610438 446.4558594122493Q488.843427204804 448.87732054796976 487.14485757712464 450.68782950254536Q485.44628794944526 452.4983384571209 483.14350878286905 453.49000517927317Q480.84072961629283 454.48167190142544 478.1044457384337 454.48167190142544ZM478.1044457384337 449.8575834291453Q480.12976965983825 449.8575834291453 481.7668690861815 448.8208378733717Q483.4039685125248 447.7840923175982 484.3659599650665 445.84238480378855Q485.3279514176083 443.9006772899789 485.3279514176083 441.1967733823486Q485.3279514176083 438.49286947471836 484.3659599650665 436.5731258938649Q483.4039685125248 434.65338231301155 481.7668690861815 433.62973838583116Q480.12976965983825 432.6060944586508 478.1044457384337 432.6060944586508Q476.1053250742155 432.6060944586508 474.4551240192791 433.62973838583116Q472.80492296434267 434.65338231301155 471.8429315118009 436.5731258938649Q470.88094005925916 438.49286947471836 470.88094005925916 441.1967733823486Q470.88094005925916 443.9006772899789 471.8429315118009 445.84238480378855Q472.80492296434267 447.7840923175982 474.4551240192791 448.8208378733717Q476.1053250742155 449.8575834291453 478.1044457384337 449.8575834291453Z M511.4280272152208 443.42247740097764V428.41551069765353H516.655557914592V454.0H511.81683674878536V450.10810632392054Q510.82305036451805 452.0143646202779 508.72951359952935 453.24801826085167Q506.6359768345407 454.48167190142544 504.0426599034975 454.48167190142544Q501.48979882594256 454.48167190142544 499.49548341515987 453.4528199556088Q497.5011680043772 452.4239680097921 496.39794561123165 450.28303136646673Q495.29472321808606 448.1420947231413 495.29472321808606 444.85400782075794V428.41551069765353H500.52225391745725V443.8178281941899Q500.52225391745725 447.01341727531747 501.97092390746036 448.4355003522314Q503.4195938974635 449.8575834291453 505.72467499945736 449.8575834291453Q507.29029095239264 449.8575834291453 508.58347740549004 449.05955416196946Q509.87666385858745 448.26152489479364 510.65234553690414 446.80611226254246Q511.4280272152208 445.3506996302912 511.4280272152208 443.42247740097764Z M528.4592242001343 441.0441959286616V454.0H523.2316935007631V428.41551069765353H528.0704146665697V433.7381674817074Q529.4537778962074 431.1448505506642 532.1507568882871 429.61795444500507Q534.8477358803668 428.0910583393459 537.952399982446 428.0910583393459V433.54593970493374Q535.1941521716307 433.38872016181585 533.0507122102873 434.0996610089726Q530.907272248944 434.8106018561294 529.683248224539 436.5153290875535Q528.4592242001343 438.2200563189775 528.4592242001343 441.0441959286616Z M557.7005451756893 441.075770368489H573.6215184147152L575.1690452123192 445.63897367793635H555.863247925424ZM575.8680162892938 454.0 565.5795350497224 425.63497262587254 555.1380735912633 454.0H549.4084416811221L562.6162650522517 419.4159574776516H568.874968742155L581.9822184087694 454.0Z M592.3181377452732 454.0H586.5969844835922V419.4159574776516H592.3181377452732Z M619.5842011597831 454.5036358343817Q616.0383210097667 454.5036358343817 613.3307437071119 452.8156645172776Q610.623166404457 451.1276932001734 609.0931819422766 448.11512415414916Q607.5631974800962 445.102555108125 607.5631974800962 441.1967733823486Q607.5631974800962 437.3433981709449 609.1193851994628 434.35279305787697Q610.6755729188296 431.362187944809 613.3962518500776 429.6480133705185Q616.1169307813257 427.93383879622803 619.5842011597831 427.93383879622803Q622.7751863700756 427.93383879622803 625.3095555270986 429.2863757885465Q627.8439246841215 430.6389127808649 629.472363188702 433.0946721663289Q631.1008016932826 435.55043155179294 631.5258277561054 438.8994036170091H626.0320251606411Q625.6501596519249 435.9454177984001 623.9319471360047 434.2647741620473Q622.2137346200846 432.5841305256945 619.6104044169695 432.5841305256945Q617.5943264558309 432.5841305256945 616.0996089378002 433.6580613051325Q614.6048914197696 434.73199208457044 613.7764195711774 436.64961600330884Q612.9479477225851 438.56723992204724 612.9479477225851 441.1967733823486Q612.9479477225851 443.82630684265007 613.7633179425842 445.792097951531Q614.5786881625833 447.7578890604119 616.086507309207 448.81871821125674Q617.5943264558309 449.87954736210156 619.6104044169695 449.87954736210156Q622.2619018102271 449.87954736210156 623.9539110689609 448.20102338786376Q625.6459203276949 446.522499413626 626.0539890935972 443.51610708064436H631.5258277561054Q631.1227656262389 446.9174856602332 629.5205303788446 449.3732450456972Q627.9182951314503 451.8290044311612 625.3860456365423 453.1663201327715Q622.8537961416345 454.5036358343817 619.5842011597831 454.5036358343817Z M647.1712831387721 454.48167190142544Q644.434999260913 454.48167190142544 642.1322200943367 453.49000517927317Q639.8294409277605 452.4983384571209 638.1308713000811 450.68782950254536Q636.4323016724018 448.87732054796976 635.484562816162 446.4558594122493Q634.5368239599222 444.0343982765288 634.5368239599222 441.1967733823486Q634.5368239599222 438.35914848816844 635.484562816162 435.9486693189261Q636.4323016724018 433.5381901496837 638.1308713000811 431.73866316158626Q639.8294409277605 429.93913617348886 642.1322200943367 428.9474694513366Q644.434999260913 427.95580272918426 647.1712831387721 427.95580272918426Q649.9075670166312 427.95580272918426 652.2103461832074 428.9474694513366Q654.5131253497836 429.93913617348886 656.211694977463 431.73866316158626Q657.9102646051424 433.5381901496837 658.8580034613822 435.9486693189261Q659.805742317622 438.35914848816844 659.805742317622 441.1967733823486Q659.805742317622 444.0343982765288 658.8580034613822 446.4558594122493Q657.9102646051424 448.87732054796976 656.211694977463 450.68782950254536Q654.5131253497836 452.4983384571209 652.2103461832074 453.49000517927317Q649.9075670166312 454.48167190142544 647.1712831387721 454.48167190142544ZM647.1712831387721 449.8575834291453Q649.1966070601766 449.8575834291453 650.8337064865199 448.8208378733717Q652.4708059128632 447.7840923175982 653.4327973654049 445.84238480378855Q654.3947888179466 443.9006772899789 654.3947888179466 441.1967733823486Q654.3947888179466 438.49286947471836 653.4327973654049 436.5731258938649Q652.4708059128632 434.65338231301155 650.8337064865199 433.62973838583116Q649.1966070601766 432.6060944586508 647.1712831387721 432.6060944586508Q645.1721624745538 432.6060944586508 643.5219614196174 433.62973838583116Q641.871760364681 434.65338231301155 640.9097689121393 436.5731258938649Q639.9477774595975 438.49286947471836 639.9477774595975 441.1967733823486Q639.9477774595975 443.9006772899789 640.9097689121393 445.84238480378855Q641.871760364681 447.7840923175982 643.5219614196174 448.8208378733717Q645.1721624745538 449.8575834291453 647.1712831387721 449.8575834291453Z M662.8109645735971 441.1967733823486Q662.8109645735971 437.35187681940505 664.2120524119609 434.34817007774393Q665.6131402503248 431.34446333608287 668.1592586856318 429.6391510661555Q670.7053771209387 427.93383879622803 674.1294869452896 427.93383879622803Q676.65767938927 427.93383879622803 678.7562227902946 429.1505351398815Q680.8547661913192 430.367231483535 682.2161654880007 432.6029487742359V419.4159574776516H687.4436961873719V454.0H682.6049750215652V449.59021789323685Q681.1911692105111 451.9087842797268 679.0009144093344 453.1952280905761Q676.8106596081577 454.48167190142544 674.1294869452896 454.48167190142544Q670.7053771209387 454.48167190142544 668.1592586856318 452.7632580029049Q665.6131402503248 451.04484410438437 664.2120524119609 448.03015539624516Q662.8109645735971 445.0154666881059 662.8109645735971 441.1967733823486ZM668.2219180732724 441.1967733823486Q668.2219180732724 445.3514669420971 670.2025468169586 447.59142355702807Q672.1831755606447 449.831380171959 675.2038204899284 449.831380171959Q677.2291444113329 449.831380171959 678.8113340052855 448.7946346161855Q680.3935235992382 447.7578890604119 681.3006052193894 445.80519958012417Q682.2076868395405 443.85251009983637 682.2076868395405 441.1266422592499Q682.2076868395405 438.3526072285208 681.26553965784 436.44596527626055Q680.3233924761395 434.5393233240003 678.7412028821868 433.5617269248474Q677.1590132882341 432.5841305256945 675.2038204899284 432.5841305256945Q672.1831755606447 432.5841305256945 670.2025468169586 434.7978838834391Q668.2219180732724 437.0116372411838 668.2219180732724 441.1967733823486Z M699.2600804456043 454.0H694.0325497462331V428.41551069765353H699.2600804456043ZM700.3239979529704 422.48246766166017Q700.3239979529704 423.93442739078495 699.2941773127475 424.8966202259271Q698.2643566725245 425.85881306106927 696.6070102101393 425.85881306106927Q694.9716276807103 425.85881306106927 693.9308250740091 424.8966202259271Q692.8900224673081 423.93442739078495 692.8900224673081 422.48246766166017Q692.8900224673081 421.004304675349 693.9308250740091 420.0640757731631Q694.9716276807103 419.1238468709772 696.6070102101393 419.1238468709772Q698.2643566725245 419.1238468709772 699.2941773127475 420.0640757731631Q700.3239979529704 421.004304675349 700.3239979529704 422.48246766166017Z M711.0610420305283 439.6658393350598V454.0H705.8335113311571V428.41551069765353H710.6722324969637V432.55671897290586Q712.015907184919 430.4755165247045 714.0899833349695 429.20467766046625Q716.1640594850198 427.93383879622803 718.7962976459396 427.93383879622803Q722.715564656212 427.93383879622803 725.1040798924981 430.4055867842061Q727.4925951287843 432.87733477218416 727.4925951287843 437.4659358084163V454.0H722.2650644294131V439.22308866351085Q722.2650644294131 436.019788245729 720.9237107861732 434.3019593857117Q719.5823571429332 432.5841305256945 716.9350990739057 432.5841305256945Q715.3305618910938 432.5841305256945 713.9892082478539 433.4324466451279Q712.6478546046139 434.28076276456136 711.854448317571 435.85409005415096Q711.0610420305283 437.42741734374056 711.0610420305283 439.6658393350598Z M744.1707581255947 463.79990353189316Q740.8260253846087 463.79990353189316 738.3001348760458 462.6594959150832Q735.7742443674831 461.5190882982732 734.3384746234727 459.397995925789Q732.9027048794624 457.27690355330486 732.7582033090347 454.4003574292482H737.8107898565618Q738.0516258072746 456.96900572671683 739.6625219764315 458.3344429650281Q741.2734181455885 459.69988020333926 744.1225909354522 459.69988020333926Q747.3351373135001 459.69988020333926 748.9764760640735 458.03445785769463Q750.6178148146467 456.36903551205 750.6178148146467 453.15224980977206V448.71202512159255Q749.5184480898283 450.90381454638094 747.5098800827437 452.1399715049727Q745.5013120756591 453.3761284635645 742.9426770502623 453.3761284635645Q739.7678818250844 453.3761284635645 737.3028764793544 451.747306303081Q734.8378711336243 450.1184841425975 733.4325439710303 447.2326920582748Q732.0272168084364 444.346899973952 732.0272168084364 440.63301969694004Q732.0272168084364 436.84052964836906 733.3801374566577 433.98980312559576Q734.7330581048791 431.13907660282246 737.1566389027146 429.5364576995253Q739.5802197005502 427.93383879622803 742.7592542499582 427.93383879622803Q745.4793481427029 427.93383879622803 747.5732685635944 429.1746187349528Q749.6671889844861 430.4153986736776 751.0066243482114 432.7559289931237V428.41551069765353H755.8453455140179V453.0778793624432Q755.8453455140179 458.1304276913746 752.7528143461257 460.9651656116339Q749.6602831782334 463.79990353189316 744.1707581255947 463.79990353189316ZM737.3071540221802 440.65922295412634Q737.3071540221802 444.4513102374965 739.075653390358 446.64309966228495Q740.8441527585356 448.83488908707335 743.8817549847395 448.83488908707335Q745.897832945878 448.83488908707335 747.4098914167319 447.83108943073415Q748.9219498875858 446.82728977439496 749.7656430268862 445.0081198980567Q750.6093361661866 443.1889500217184 750.6093361661866 440.7867672276337Q750.6093361661866 436.9946799442635 748.7795679792732 434.7238970920132Q746.9497997923597 432.45311423976295 743.8817549847395 432.45311423976295Q740.8661166914918 432.45311423976295 739.086635356836 434.6580052931445Q737.3071540221802 436.8628963465261 737.3071540221802 440.65922295412634Z M787.9331345788183 454.0V450.1994340681697Q786.7382007855207 452.2459546107246 784.6814655882936 453.363813256075Q782.6247303910664 454.48167190142544 779.8345053752229 454.48167190142544Q775.8543532021177 454.48167190142544 773.4506166751235 452.3626991910563Q771.046880148129 450.24372648068726 771.046880148129 446.7367675605473Q771.046880148129 442.97548740519863 774.0003000375326 441.03145884667356Q776.9537199269362 439.0874302881485 782.6247303910664 439.0874302881485Q783.7503003730711 439.0874302881485 784.801499907747 439.1486991068842Q785.8526994424228 439.2099679256199 787.308495730577 439.3764334290037V437.5749881613916Q787.308495730577 434.96665132224064 785.9519207966289 433.51335835210443Q784.5953458626807 432.0600653819683 782.1365172299933 432.0600653819683Q779.5940721897109 432.0600653819683 778.0904923673172 433.5243403185826Q776.5869125449235 434.98861525519686 776.455896258992 437.5530242284354H771.7177487977006Q771.8487650836321 434.6283109142362 773.1882004473573 432.4763923044327Q774.5276358110826 430.3244736946292 776.8325346397739 429.1291562454286Q779.1374334684651 427.93383879622803 782.1407565542233 427.93383879622803Q786.9382163361402 427.93383879622803 789.6061050971126 430.50365717070326Q792.2739938580851 433.07347554517855 792.2739938580851 437.67903387833104V454.0ZM776.0123782756372 446.58378734165956Q776.0123782756372 448.4730883410966 777.3385106281689 449.62389288588145Q778.6646429807006 450.7746974306662 780.8826356626754 450.7746974306662Q783.8543460900105 450.7746974306662 785.5814209102937 449.1017651309677Q787.308495730577 447.4288328312692 787.308495730577 444.63129924397214V442.6202279188696Q785.9540404587439 442.4495230912556 784.9197982209882 442.38825427251993Q783.8855559832327 442.32698545378423 782.9349301530721 442.32698545378423Q779.4800132006997 442.32698545378423 777.7461957381684 443.3747129760359Q776.0123782756372 444.42244049828753 776.0123782756372 446.58378734165956Z M808.9556288673198 463.79990353189316Q805.6108961263337 463.79990353189316 803.085005617771 462.6594959150832Q800.5591151092082 461.5190882982732 799.1233453651978 459.397995925789Q797.6875756211874 457.27690355330486 797.5430740507597 454.4003574292482H802.5956605982868Q802.8364965489997 456.96900572671683 804.4473927181566 458.3344429650281Q806.0582888873136 459.69988020333926 808.9074616771773 459.69988020333926Q812.1200080552252 459.69988020333926 813.7613468057984 458.03445785769463Q815.4026855563718 456.36903551205 815.4026855563718 453.15224980977206V448.71202512159255Q814.3033188315534 450.90381454638094 812.2947508244688 452.1399715049727Q810.2861828173842 453.3761284635645 807.7275477919874 453.3761284635645Q804.5527525668094 453.3761284635645 802.0877472210793 451.747306303081Q799.6227418753493 450.1184841425975 798.2174147127554 447.2326920582748Q796.8120875501614 444.346899973952 796.8120875501614 440.63301969694004Q796.8120875501614 436.84052964836906 798.1650081983828 433.98980312559576Q799.5179288466041 431.13907660282246 801.9415096444397 429.5364576995253Q804.3650904422752 427.93383879622803 807.5441249916832 427.93383879622803Q810.2642188844279 427.93383879622803 812.3581393053196 429.1746187349528Q814.4520597262111 430.4153986736776 815.7914950899365 432.7559289931237V428.41551069765353H820.630216255743V453.0778793624432Q820.630216255743 458.1304276913746 817.5376850878507 460.9651656116339Q814.4451539199584 463.79990353189316 808.9556288673198 463.79990353189316ZM802.0920247639052 440.65922295412634Q802.0920247639052 444.4513102374965 803.8605241320829 446.64309966228495Q805.6290235002607 448.83488908707335 808.6666257264645 448.83488908707335Q810.6827036876031 448.83488908707335 812.194762158457 447.83108943073415Q813.7068206293109 446.82728977439496 814.5505137686113 445.0081198980567Q815.3942069079117 443.1889500217184 815.3942069079117 440.7867672276337Q815.3942069079117 436.9946799442635 813.5644387209982 434.7238970920132Q811.7346705340848 432.45311423976295 808.6666257264645 432.45311423976295Q805.6509874332169 432.45311423976295 803.871506098561 434.6580052931445Q802.0920247639052 436.8628963465261 802.0920247639052 440.65922295412634Z M837.8432249801575 454.4774325771954Q834.1308793267572 454.4774325771954 831.3290873059323 452.8025628886844Q828.5272952851074 451.1276932001734 826.9753468899708 448.093160221193Q825.423398494834 445.05862724221254 825.423398494834 441.06075046038114Q825.423398494834 437.2690277236161 827.0125321136352 434.31348817209755Q828.6016657324362 431.35794862057895 831.381493820305 429.6458937084035Q834.1613219081736 427.93383879622803 837.70720205819 427.93383879622803Q840.6269087363532 427.93383879622803 842.964369808576 429.0281988850105Q845.3018308807987 430.122558973793 846.9171677567861 432.10126943796456Q848.5325046327735 434.07997990213613 849.2659944513898 436.73303102830334Q849.9994842700062 439.3860821544705 849.641117317858 442.4992249050099H828.4737569123238V439.08048626330003H844.0771835992948Q843.9411606773273 435.69993975825656 842.2031038905659 433.7751895413672Q840.4650471038046 431.8504393244778 837.6023890294448 431.8504393244778Q835.485737363791 431.8504393244778 833.9449723177329 432.95269302321714Q832.4042072716747 434.05494672195647 831.5558911522413 436.1099459129715Q830.7075750328079 438.16494510398655 830.7075750328079 441.0649897846112Q830.7075750328079 443.99200503422804 831.533927219285 446.0845731048105Q832.3602794057622 448.1771411753929 833.9361100133698 449.2772752120172Q835.5119406209774 450.37740924864147 837.7384119514122 450.37740924864147Q840.3729520477495 450.37740924864147 842.1110088345109 449.0508932402068Q843.8490656212723 447.7243772317721 844.4228325787527 445.33915173460764H849.6283993451677Q848.6438589211664 449.61678569702826 845.533219488645 452.0471091371118Q842.4225800561236 454.4774325771954 837.8432249801575 454.4774325771954Z M859.8494923808544 439.6658393350598V454.0H854.6219616814832V428.41551069765353H859.4606828472898V432.55671897290586Q860.8043575352451 430.4755165247045 862.8784336852955 429.20467766046625Q864.952509835346 427.93383879622803 867.5847479962657 427.93383879622803Q871.5040150065381 427.93383879622803 873.8925302428243 430.4055867842061Q876.2810454791104 432.87733477218416 876.2810454791104 437.4659358084163V454.0H871.0535147797392V439.22308866351085Q871.0535147797392 436.019788245729 869.7121611364993 434.3019593857117Q868.3708074932593 432.5841305256945 865.7235494242318 432.5841305256945Q864.1190122414199 432.5841305256945 862.77765859818 433.4324466451279Q861.43630495494 434.28076276456136 860.6428986678973 435.85409005415096Q859.8494923808544 437.42741734374056 859.8494923808544 439.6658393350598Z M897.3158549751013 448.9169708710565V453.5021381134601Q896.2087769136285 454.05317382617847 895.1413873938382 454.2674228638019Q894.0739978740479 454.48167190142544 892.8231855539534 454.48167190142544Q890.4163606704378 454.48167190142544 888.5867747568269 453.58248389123116Q886.757188843216 452.6832958810368 885.7262172352843 450.8275067102396Q884.6952456273525 448.97171753944235 884.6952456273525 446.16530253848447V432.91282220823217H879.1756807584983V428.41551069765353H884.6952456273525V420.8709864539999H889.9227763267237V428.41551069765353H897.5524516015839V432.91282220823217H889.9227763267237V444.9853886532946Q889.9227763267237 447.52282705754095 891.0600955870124 448.57864957234983Q892.197414847301 449.6344720871587 894.1248697648088 449.6344720871587Q895.0045971600648 449.6344720871587 895.8010918036289 449.45952793531467Q896.5975864471931 449.2845837834707 897.3158549751013 448.9169708710565Z M922.6306003689303 446.2616369187695Q922.6306003689303 450.065310316419 919.8114673952822 452.27349110892226Q916.992334421634 454.48167190142544 911.8187830788429 454.48167190142544Q906.6933989261943 454.48167190142544 903.7559676393048 452.1024026254054Q900.8185363524153 449.72313334938525 900.4551627642312 445.5950075934282H905.4553427973857Q905.5651624621669 447.89161004696183 907.3201765458485 449.2283407100688Q909.0751906295302 450.5650713731757 911.8973928504018 450.5650713731757Q914.348510146435 450.5650713731757 915.8495866508108 449.7075092934763Q917.3506631551866 448.84994721377683 917.3506631551866 447.1355903661838Q917.3506631551866 445.63162688788714 916.3599651274405 444.8576812157826Q915.3692670996945 444.083735543678 913.076136658585 443.64522419635915L908.8489718217245 442.86183118138814Q905.3454849140089 442.19172984362257 903.4103186598469 440.3748619027019Q901.4751524056849 438.5579939617812 901.4751524056849 435.64676593207804Q901.4751524056849 433.38367530718426 902.714014064895 431.6436811316104Q903.9528757241051 429.9036869560365 906.1918827539276 428.9187628761323Q908.4308897837502 427.93383879622803 911.4292062334724 427.93383879622803Q914.541581672206 427.93383879622803 916.8900247109068 428.9779120327529Q919.2384677496076 430.0219852692778 920.6391719320686 431.9656301719Q922.0398761145295 433.90927507452216 922.2367841993298 436.5796671535126H917.2366041661753Q917.0262107968789 434.3574351473078 915.4790867644756 433.1039372358928Q913.9319627320724 431.8504393244778 911.4554094906588 431.8504393244778Q909.2416561329142 431.8504393244778 907.8804582188329 432.7320849992485Q906.5192603047518 433.6137306740192 906.5192603047518 435.1835859511846Q906.5192603047518 436.6393822393387 907.5188206368609 437.39386729650505Q908.5183809689701 438.1483523536713 910.7109377055643 438.5868637009902L915.1696925328715 439.4226632303338Q918.9486972969464 440.11896782528567 920.7896488329384 441.81541779085Q922.6306003689303 443.5118677564143 922.6306003689303 446.2616369187695Z M943.0823969471747 454.0H937.8548662478036V428.41551069765353H943.0823969471747ZM944.1463144545409 422.48246766166017Q944.1463144545409 423.93442739078495 943.1164938143179 424.8966202259271Q942.0866731740949 425.85881306106927 940.4293267117097 425.85881306106927Q938.7939441822807 425.85881306106927 937.7531415755795 424.8966202259271Q936.7123389688785 423.93442739078495 936.7123389688785 422.48246766166017Q936.7123389688785 421.004304675349 937.7531415755795 420.0640757731631Q938.7939441822807 419.1238468709772 940.4293267117097 419.1238468709772Q942.0866731740949 419.1238468709772 943.1164938143179 420.0640757731631Q944.1463144545409 421.004304675349 944.1463144545409 422.48246766166017Z M954.8833585320987 439.6658393350598V454.0H949.6558278327275V428.41551069765353H954.4945489985341V432.55671897290586Q955.8382236864894 430.4755165247045 957.9122998365399 429.20467766046625Q959.9863759865902 427.93383879622803 962.61861414751 427.93383879622803Q966.5378811577824 427.93383879622803 968.9263963940685 430.4055867842061Q971.3149116303547 432.87733477218416 971.3149116303547 437.4659358084163V454.0H966.0873809309835V439.22308866351085Q966.0873809309835 436.019788245729 964.7460272877436 434.3019593857117Q963.4046736445036 432.5841305256945 960.7574155754761 432.5841305256945Q959.1528783926642 432.5841305256945 957.8115247494243 433.4324466451279Q956.4701711061844 434.28076276456136 955.6767648191415 435.85409005415096Q954.8833585320987 437.42741734374056 954.8833585320987 439.6658393350598Z M1008.2236972522355 446.2616369187695Q1008.2236972522355 450.065310316419 1005.4045642785874 452.27349110892226Q1002.5854313049392 454.48167190142544 997.4118799621481 454.48167190142544Q992.2864958094995 454.48167190142544 989.34906452261 452.1024026254054Q986.4116332357205 449.72313334938525 986.0482596475364 445.5950075934282H991.0484396806909Q991.1582593454721 447.89161004696183 992.9132734291537 449.2283407100688Q994.6682875128354 450.5650713731757 997.490489733707 450.5650713731757Q999.9416070297402 450.5650713731757 1001.442683534116 449.7075092934763Q1002.9437600384917 448.84994721377683 1002.9437600384917 447.1355903661838Q1002.9437600384917 445.63162688788714 1001.9530620107457 444.8576812157826Q1000.9623639829997 444.083735543678 998.6692335418902 443.64522419635915L994.4420687050297 442.86183118138814Q990.9385817973141 442.19172984362257 989.0034155431521 440.3748619027019Q987.06824928899 438.5579939617812 987.06824928899 435.64676593207804Q987.06824928899 433.38367530718426 988.3071109482001 431.6436811316104Q989.5459726074102 429.9036869560365 991.7849796372328 428.9187628761323Q994.0239866670554 427.93383879622803 997.0223031167776 427.93383879622803Q1000.1346785555112 427.93383879622803 1002.483121594212 428.9779120327529Q1004.8315646329128 430.0219852692778 1006.2322688153738 431.9656301719Q1007.6329729978347 433.90927507452216 1007.829881082635 436.5796671535126H1002.8297010494805Q1002.6193076801841 434.3574351473078 1001.0721836477808 433.1039372358928Q999.5250596153776 431.8504393244778 997.048506373964 431.8504393244778Q994.8347530162193 431.8504393244778 993.4735551021381 432.7320849992485Q992.112357188057 433.6137306740192 992.112357188057 435.1835859511846Q992.112357188057 436.6393822393387 993.1119175201661 437.39386729650505Q994.1114778522752 438.1483523536713 996.3040345888695 438.5868637009902L1000.7627894161767 439.4226632303338Q1004.5417941802516 440.11896782528567 1006.3827457162436 441.81541779085Q1008.2236972522355 443.5118677564143 1008.2236972522355 446.2616369187695Z M1034.9888677515778 428.41551069765353 1022.2407523489173 463.2962676975115H1016.5720056016089L1020.2284727282124 453.6890329261885L1010.1353267312339 428.41551069765353H1015.7998341543122L1023.012559249609 447.50817169603823L1029.6912059291078 428.41551069765353Z M1043.559155584527 439.6658393350598V454.0H1038.3316248851556V428.41551069765353H1043.1703460509623V432.55671897290586Q1044.5140207389177 430.4755165247045 1046.588096888968 429.20467766046625Q1048.6621730390184 427.93383879622803 1051.2944111999382 427.93383879622803Q1055.2136782102107 427.93383879622803 1057.6021934464966 430.4055867842061Q1059.9907086827827 432.87733477218416 1059.9907086827827 437.4659358084163V454.0H1054.7631779834117V439.22308866351085Q1054.7631779834117 436.019788245729 1053.4218243401717 434.3019593857117Q1052.0804706969318 432.5841305256945 1049.4332126279041 432.5841305256945Q1047.8286754450924 432.5841305256945 1046.4873218018524 433.4324466451279Q1045.1459681586125 434.28076276456136 1044.3525618715698 435.85409005415096Q1043.559155584527 437.42741734374056 1043.559155584527 439.6658393350598Z M1076.546334042122 454.5036358343817Q1073.0004538921057 454.5036358343817 1070.2928765894508 452.8156645172776Q1067.5852992867958 451.1276932001734 1066.0553148246154 448.11512415414916Q1064.525330362435 445.102555108125 1064.525330362435 441.1967733823486Q1064.525330362435 437.3433981709449 1066.0815180818017 434.35279305787697Q1067.6377058011685 431.362187944809 1070.3583847324167 429.6480133705185Q1073.0790636636646 427.93383879622803 1076.546334042122 427.93383879622803Q1079.7373192524144 427.93383879622803 1082.2716884094375 429.2863757885465Q1084.8060575664604 430.6389127808649 1086.434496071041 433.0946721663289Q1088.0629345756215 435.55043155179294 1088.4879606384443 438.8994036170091H1082.99415804298Q1082.6122925342638 435.9454177984001 1080.8940800183436 434.2647741620473Q1079.1758675024234 432.5841305256945 1076.5725372993084 432.5841305256945Q1074.5564593381698 432.5841305256945 1073.061741820139 433.6580613051325Q1071.5670243021084 434.73199208457044 1070.7385524535161 436.64961600330884Q1069.9100806049241 438.56723992204724 1069.9100806049241 441.1967733823486Q1069.9100806049241 443.82630684265007 1070.7254508249232 445.792097951531Q1071.5408210449223 447.7578890604119 1073.048640191546 448.81871821125674Q1074.5564593381698 449.87954736210156 1076.5725372993084 449.87954736210156Q1079.224034692566 449.87954736210156 1080.9160439512998 448.20102338786376Q1082.6080532100336 446.522499413626 1083.0161219759361 443.51610708064436H1088.4879606384443Q1088.0848985085777 446.9174856602332 1086.4826632611835 449.3732450456972Q1084.8804280137892 451.8290044311612 1082.3481785188815 453.1663201327715Q1079.8159290239735 454.5036358343817 1076.546334042122 454.5036358343817Z"/>
</svg>
