<svg xmlns="http://www.w3.org/2000/svg" viewBox="0 -2 1168 534" role="img" aria-label="Cyncia logo">
  <defs>
    <linearGradient id="cg" x1="0" y1="0" x2="0" y2="512" gradientUnits="userSpaceOnUse">
      <stop offset="0" stop-color="#1e78f0"/>
      <stop offset="1" stop-color="#8629e6"/>
    </linearGradient>
  </defs>

  <!-- C mark (same geometry as favicon-rounded.svg, scaled into place) -->
  <g transform="translate(46.4 33.6) scale(0.7716)">
    <path d="M 366.1 98.7 A 192 192 0 1 0 366.1 413.3" fill="none" stroke="url(#cg)" stroke-width="46" stroke-linecap="round"/>
    <path d="M 344.9 137.3 L 396.4 63.7 L 433.1 144.3 Z" fill="url(#cg)" stroke="url(#cg)" stroke-width="18" stroke-linejoin="round"/>
    <path d="M 344.9 374.7 L 396.4 448.3 L 433.1 367.7 Z" fill="url(#cg)" stroke="url(#cg)" stroke-width="18" stroke-linejoin="round"/>
    <path d="M 101 188 L 252 188" fill="none" stroke="url(#cg)" stroke-width="22" stroke-linecap="round"/>
    <path d="M 87 256 L 332 256" fill="none" stroke="url(#cg)" stroke-width="22" stroke-linecap="round"/>
    <path d="M 101 324 L 252 324" fill="none" stroke="url(#cg)" stroke-width="22" stroke-linecap="round"/>
    <circle cx="252" cy="188" r="19" fill="url(#cg)"/>
    <circle cx="332" cy="256" r="27" fill="url(#cg)"/>
    <circle cx="252" cy="324" r="19" fill="url(#cg)"/>
  </g>

  <!-- yncia wordmark -->
  <path fill="#000000" d="M452.17420957368086 394.5999813814932Q445.3067790943026 394.5999813814932 436.9156322354553 391.98545252164854Q428.52448537660797 389.3709236618039 420.7373075131641 385.522654474969L432.3551898688156 359.81842140638577Q438.228104007952 362.62258240666563 442.85687342308785 364.1397286178768Q447.48564283822367 365.65687482908794 450.524545868987 365.65687482908794Q457.5050398582298 365.65687482908794 462.4528532274169 361.9066377794958Q467.40066659660397 358.1564007299036 470.44809935554207 351.0181573377614L478.455051554133 331.5617179901382L414.0 186.7510395332961H448.0299037364038L493.2804329066464 295.69980894022575L537.5556822365894 186.7510395332961H571.7627116672666L503.59019757698655 348.93211470524454Q497.7514023505492 362.8037868479159 491.41643747578723 373.08395845693394Q485.0814726010253 383.36413006595205 475.8889952538607 388.9820557237226Q466.6965179066961 394.5999813814932 452.17420957368086 394.5999813814932Z M587.2182482027686 332.71237510085024V186.7510395332961H616.7281811698138L618.0662421268348 207.56489079362416Q625.2601577666427 195.7558846633202 636.5557306028538 189.5019260714975Q647.851303439065 183.2479674796748 662.6104455635768 183.2479674796748Q679.9134095923239 183.2479674796748 692.4051251257781 190.22321596242102Q704.8968406592323 197.19846444516728 711.6607366556191 211.97145496198658Q718.4246326520057 226.74444547880591 718.2475069577324 250.46048987665665V332.71237510085024H686.876665679021V257.98017129026255Q686.876665679021 239.9641379838933 682.673651043219 230.230573046328Q678.470636407417 220.49700810876274 671.0964187310448 216.60506811706017Q663.7222010546725 212.71312812535757 654.0933513795047 212.5980624142864Q637.1382860547222 212.36793099214398 627.863687768101 223.83916990585197Q618.58908948148 235.31040881956 618.58908948148 256.6526572194866V332.71237510085024Z M820.2680425027191 336.2154471544715Q798.0652671315424 336.2154471544715 780.8593956781068 326.43603767144543Q763.6535242246712 316.6566281884193 753.9254049305993 299.3756577359123Q744.1972856365273 282.0946872834053 744.1972856365273 259.7317073170732Q744.1972856365273 237.25366163966982 753.8368420834627 220.03022404269842Q763.4763985303979 202.80678644572706 780.5670294303762 193.02737696270094Q797.6576603303546 183.2479674796748 819.6833100072579 183.2479674796748Q841.3632380237893 183.2479674796748 858.711027737003 193.5366558756071Q876.0588174502165 203.8253442715394 884.5993237752201 222.70445949867184L855.5674124783536 234.10013420044845Q850.571597082409 224.19397069627638 840.7432088707346 218.36512093078503Q830.9148206590603 212.53627116529367 818.5309044726849 212.53627116529367Q806.0851031454937 212.53627116529367 796.5448163174626 218.54623628430605Q787.0045294894314 224.55620140331843 781.5744295859784 235.19642997878537Q776.1443296825252 245.83665855425232 776.1443296825252 259.7317073170732Q776.1443296825252 273.626756079894 781.6629924331149 284.2094517998254Q787.1816551837047 294.7921475197567 796.9257454123298 300.8596454943047Q806.6698356409548 306.92714346885265 819.1156369681462 306.92714346885265Q831.5614382953376 306.92714346885265 841.4207690774199 300.56772282316956Q851.2800998595022 294.2083021774865 856.2140301146308 283.24099691293094L885.4230671057707 294.5216059036364Q876.882560780767 314.2850059310884 859.5038284971454 325.25022654277996Q842.1250962135239 336.2154471544715 820.2680425027191 336.2154471544715Z M906.0880879558537 332.71237510085024V186.7510395332961H937.4589292345651V332.71237510085024ZM921.9506342894827 158.23648059357038Q914.5070010428179 158.23648059357038 908.9242761078194 152.66222574066748Q903.3415511728209 147.08797088776458 903.3415511728209 139.65563108389406Q903.3415511728209 131.93136860888845 908.9242761078194 126.50307509155311Q914.5070010428179 121.07478157421778 921.9506342894827 121.07478157421778Q929.6866337838779 121.07478157421778 935.1231755950112 126.50307509155311Q940.5597174061444 131.93136860888845 940.5597174061444 139.65563108389406Q940.5597174061444 147.08797088776458 935.1231755950112 152.66222574066748Q929.6866337838779 158.23648059357038 921.9506342894827 158.23648059357038Z M1017.9419631274735 336.2154471544715Q991.8295825178527 336.2154471544715 977.3574532551877 324.4884709679142Q962.8853239925226 312.76149478135693 962.8853239925226 291.55127847079996Q962.8853239925226 268.79829687382704 978.1257548738424 256.9253593517022Q993.3661857551623 245.05242182957733 1020.8230941974291 245.05242182957733H1058.3310367216477Q1056.5853455167342 228.21926375895973 1049.050088792925 219.5150087404072Q1041.5148320691158 210.81075372185467 1026.8199631493544 210.81075372185467Q1016.1604622621054 210.81075372185467 1008.1076310273086 215.29822584697Q1000.0547997925117 219.78569797208536 994.591625647227 229.15270357575713L966.8951731806244 219.07801564724818Q971.6903365503211 209.33593544170088 979.5340798175141 201.18333408937477Q987.377823084707 193.03073273704865 999.042701008786 188.13935010836173Q1010.707578932865 183.2479674796748 1026.8199631493544 183.2479674796748Q1048.1371803892785 183.2479674796748 1062.2497854197393 191.51344757798103Q1076.3623904502 199.77892767628722 1083.2746364119328 215.25507593433935Q1090.1868823736654 230.7312241923915 1089.9948069690017 252.75104333717888L1089.4185807550107 332.71237510085024H1060.277309612695L1059.391704588033 314.5791959873424Q1053.435582508884 325.00526021746595 1042.9979290114438 330.61035368596873Q1032.560275514004 336.2154471544715 1017.9419631274735 336.2154471544715ZM1021.7664586578074 309.6115808564374Q1032.7268320742573 309.6115808564374 1041.1808266813218 304.782116719034Q1049.634821288386 299.95265258163056 1054.321187533546 291.54456692210454Q1059.0075537787056 283.13648126257846 1059.0075537787056 272.5423313438869V269.35488026166166H1030.460889556495Q1010.7550475525372 269.35488026166166 1002.7940008793372 274.98120716962137Q994.8329542061372 280.60753407758114 994.8329542061372 290.7841425154834Q994.8329542061372 299.6097696557988 1001.9339146990856 304.6106752561181Q1009.0348751920338 309.6115808564374 1021.7664586578074 309.6115808564374Z"/>

  <!-- slogan -->
  <path fill="#000000" d="M295.63475593486373 454.0V419.75342331288346H300.88425734878246V439.58427787660565L310.2275875166554 429.53815950920244H316.58912324374506L307.4225382343988 439.6093010972249L317.4340361698379 454.0H311.1599921329801L304.0282189811396 443.39072778182515L300.88425734878246 446.7793078190903V454.0Z M331.6215089848653 454.58708417177917Q328.03472132310617 454.58708417177917 325.27124505531447 452.9481408588957Q322.5077687875227 451.3091975460123 320.9345315210603 448.42270036809816Q319.36129425459796 445.53620319018404 319.36129425459796 441.76907975460125Q319.36129425459796 438.0019563190184 320.95828165388275 435.1154591411043Q322.55526905316754 432.22896196319016 325.350174928833 430.5900186503068Q328.14508080449843 428.95107533742333 331.76258636646287 428.95107533742333Q335.07546113844546 428.95107533742333 337.6900312402872 430.6389423312884Q340.30460134212893 432.32680932515336 341.81767691421635 435.47953991779264Q343.3307524863038 438.63227051043197 343.3307524863038 443.01150235665204H324.78695536034036Q325.03157376524837 446.2128928505077 327.10045321054224 448.0421358445725Q329.1693326558362 449.8713788386372 332.0714874024551 449.8713788386372Q334.3626585351714 449.8713788386372 335.8780185395651 448.83060840162517Q337.3933785439588 447.7898379646131 338.2293513666563 446.13467468465757L342.86114487260096 448.133428528219Q341.86731230286637 450.1043113022487 340.2787160863013 451.5629188413084Q338.6901198697363 453.0215263803681 336.52354237178025 453.8043052760736Q334.3569648738242 454.58708417177917 331.6215089848653 454.58708417177917ZM325.1126387617721 438.9386233343527H337.643690610214Q337.49691956726923 437.13668901145235 336.61486989426373 435.93023004305087Q335.7328202212582 434.7237710746494 334.4229695388474 434.09885192598097Q333.1131188564366 433.4739327773125 331.63402110429433 433.4739327773125Q330.2038470331337 433.4739327773125 328.7618725502124 434.0827812682099Q327.31989806729104 434.6916297591073 326.31411577649476 435.9064799102285Q325.3083334856984 437.1213300613497 325.1126387617721 438.9386233343527Z M358.5295335247426 454.58708417177917Q354.9427458629835 454.58708417177917 352.1792695951917 452.9481408588957Q349.4157933274 451.3091975460123 347.8425560609377 448.42270036809816Q346.2693187944753 445.53620319018404 346.2693187944753 441.76907975460125Q346.2693187944753 438.0019563190184 347.86630619376007 435.1154591411043Q349.46329359304485 432.22896196319016 352.2581994687103 430.5900186503068Q355.05310534437575 428.95107533742333 358.6706109063402 428.95107533742333Q361.9834856783228 428.95107533742333 364.5980557801645 430.6389423312884Q367.21262588200625 432.32680932515336 368.7257014540937 435.47953991779264Q370.23877702618114 438.63227051043197 370.23877702618114 443.01150235665204H351.6949799002177Q351.9395983051257 446.2128928505077 354.0084777504196 448.0421358445725Q356.0773571957135 449.8713788386372 358.9795119423324 449.8713788386372Q361.27068307504874 449.8713788386372 362.78604307944244 448.83060840162517Q364.30140308383614 447.7898379646131 365.13737590653363 446.13467468465757L369.7691694124783 448.133428528219Q368.7753368427437 450.1043113022487 367.1867406261787 451.5629188413084Q365.5981444096136 453.0215263803681 363.43156691165757 453.8043052760736Q361.2649894137015 454.58708417177917 358.5295335247426 454.58708417177917ZM352.0206633016494 438.9386233343527H364.5517151500913Q364.40494410714655 437.13668901145235 363.522894434141 435.93023004305087Q362.6408447611355 434.7237710746494 361.3309940787247 434.09885192598097Q360.0211433963139 433.4739327773125 358.54204564417165 433.4739327773125Q357.111871573011 433.4739327773125 355.66989709008965 434.0827812682099Q354.22792260716835 434.6916297591073 353.222140316372 435.9064799102285Q352.21635802557574 437.1213300613497 352.0206633016494 438.9386233343527Z M374.79327176308465 463.78473619631905V429.53815950920244H379.73137442532584L379.96563715850255 433.33455832127106Q381.26871987921766 431.2561976989072 383.267803474825 430.1036365181653Q385.26688707043223 428.95107533742333 387.843412835506 428.95107533742333Q391.16879580341725 428.95107533742333 393.654261531166 430.54180863874376Q396.1397272589148 432.13254194006424 397.51994599813065 435.0093971156657Q398.90016473734653 437.8862522912672 398.90016473734653 441.76983599007673Q398.90016473734653 445.6029835369536 397.51994599813065 448.50430055304594Q396.1397272589148 451.4056175691382 393.654261531166 452.9963508704587Q391.16879580341725 454.58708417177917 387.843412835506 454.58708417177917Q385.2861710750574 454.58708417177917 383.3160134863879 453.4538069956624Q381.3458558977184 452.32052981954564 380.04277317700337 450.3000212110573V463.78473619631905ZM386.56210449722 449.78539688075153Q388.5819616007236 449.78539688075153 390.13569783418797 448.75889539949196Q391.6894340676523 447.73239391823233 392.5929126770393 445.923919529847Q393.4963912864263 444.11544514146175 393.4963912864263 441.76827625440853Q393.4963912864263 439.42110736735526 392.6211332641943 437.6149450917694Q391.7458752419624 435.80878281618357 390.1898609802167 434.79041472462984Q388.633846718471 433.7720466330761 386.6110281782016 433.7720466330761Q384.7002630869439 433.7720466330761 383.20747785939886 434.7911642761335Q381.7146926318538 435.81028191919086 380.8787329044286 437.6177735880096Q380.04277317700337 439.4252652568283 380.04277317700337 441.7711586993378Q380.04277317700337 444.1170521418472 380.877565602153 445.92938005156486Q381.71235802730274 447.7417079612826 383.18318277637604 448.76355242101704Q384.6540075254493 449.78539688075153 386.56210449722 449.78539688075153Z M412.57057181329213 454.58708417177917Q410.0711938372204 454.58708417177917 408.03318160143283 453.83573488394734Q405.9951693656453 453.08438559611557 404.53869694959076 451.7473755518414Q403.08222453353625 450.4103655075673 402.33585719938327 448.6380242881376L406.8740735893751 446.6310285711575Q407.64149353497794 448.02336766542885 409.10650644305326 448.9634439098041Q410.5715193511286 449.9035201541793 412.385965793458 449.9035201541793Q414.33609457463996 449.9035201541793 415.5355857756585 449.2289656168608Q416.735076976677 448.5544110795424 416.735076976677 447.30457278220547Q416.735076976677 446.1218639466264 415.81590403445057 445.4626683594106Q414.8967310922241 444.8034727721948 413.20373283537924 444.3756717627895L410.90289641390746 443.7718052255709Q407.46430321042993 442.85903765236003 405.5178822768911 440.94618144970013Q403.5714613433522 439.0333252470402 403.5714613433522 436.57605249386813Q403.5714613433522 432.94318798180103 405.9260540901833 430.9471316596122Q408.2806468370144 428.95107533742333 412.74948417177905 428.95107533742333Q414.9817677161561 428.95107533742333 416.862482603274 429.61083332300643Q418.74319749039176 430.2705913085896 420.08646359438046 431.46011860225053Q421.4297296983691 432.6496458959115 421.9846725546061 434.2473450028647L417.5750214267828 436.2404051850788Q417.0815143709565 434.94306662209715 415.6934455226956 434.272782330789Q414.3053766744346 433.60249803948096 412.59844288282386 433.60249803948096Q410.8411619948947 433.60249803948096 409.86325077363017 434.34972639060345Q408.88533955236556 435.0969547417259 408.88533955236556 436.42785803558655Q408.88533955236556 437.2149071773025 409.7464859232223 437.8489292163591Q410.607632294079 438.4829512554157 412.26564240470816 438.8939698993815L415.0764696288436 439.5928369678897Q417.47372999694176 440.17992113966886 419.00089041309616 441.4092692239233Q420.5280508292505 442.6386173081777 421.27243234969933 444.16989866104143Q422.0168138701482 445.7011800139051 422.0168138701482 447.2849435860924Q422.0168138701482 449.4865092302642 420.7790746031741 451.1408114932503Q419.54133533619995 452.7951137562364 417.41600204417415 453.6910989640078Q415.29066875214835 454.58708417177917 412.57057181329213 454.58708417177917Z M441.96837028913427 464.37182036809816Q440.81919530555007 464.37182036809816 439.4150462453267 463.9336482475196Q438.0108971851034 463.4954761269411 436.70781446438826 462.85053994128646L438.651915654117 458.54273577645705Q439.6346712902606 459.0126885816478 440.40923552249075 459.2669489888684Q441.1837997547209 459.521209396089 441.69232056916206 459.521209396089Q442.86041525750085 459.521209396089 443.68836733715955 458.892702537385Q444.5163194168183 458.264195678681 445.0262675700967 457.06788865282306L446.3661266613544 453.80715995374806L435.58041386323316 429.53815950920244H441.2748747223685L448.84696100304336 447.7970183264235L456.2558469138227 429.53815950920244H461.97994744931447L450.57216574757945 456.71828619176574Q449.59511946678475 459.0430568577454 448.5350456622051 460.76592351376775Q447.47497185762546 462.4887901697901 445.9367305843797 463.43030526894415Q444.39848931113386 464.37182036809816 441.96837028913427 464.37182036809816Z M476.53880278302256 454.58708417177917Q472.8629721695609 454.58708417177917 470.0295194050176 452.9481408588957Q467.1960666404742 451.3091975460123 465.58789074708477 448.42270036809816Q463.97971485369527 445.53620319018404 463.97971485369527 441.76907975460125Q463.97971485369527 438.0019563190184 465.5621494201877 435.1154591411043Q467.1445839866802 432.22896196319016 469.977652323465 430.5900186503068Q472.8107206602499 428.95107533742333 476.435006280281 428.95107533742333Q480.1103381766506 428.95107533742333 482.9434065134355 430.5900186503068Q485.7764748502204 432.22896196319016 487.360602976838 435.1154591411043Q488.94473110345564 438.0019563190184 488.94473110345564 441.76907975460125Q488.94473110345564 445.53620319018404 487.36208181154853 448.42270036809816Q485.77943251964143 451.3091975460123 482.97150635658045 452.9481408588957Q480.16358019351946 454.58708417177917 476.53880278302256 454.58708417177917ZM476.53560850004783 449.75575720439514Q478.6198317950402 449.75575720439514 480.2022976301271 448.7333081588901Q481.78476346521387 447.7108591133851 482.69178656581244 445.91675041089513Q483.59880966641094 444.12264170840524 483.59880966641094 441.76907975460125Q483.59880966641094 439.4155178007972 482.6899111625229 437.62140909830725Q481.78101265863484 435.82730039581736 480.15659831126044 434.80485135031233Q478.53218396388604 433.7824023048073 476.44365123154756 433.7824023048073Q474.3551184992091 433.7824023048073 472.749553024967 434.804298650634Q471.14398755072494 435.82619499646074 470.23481192073245 437.61933386743965Q469.3256362907399 439.4124727384186 469.3256362907399 441.7647624401329Q469.3256362907399 444.1170521418472 470.2491125741707 445.90990319186153Q471.1725888576015 447.70275424187594 472.8048122270417 448.72925572313557Q474.43703559648185 449.75575720439514 476.53560850004783 449.75575720439514Z M502.5447858165979 454.58708417177917Q499.6789999821462 454.58708417177917 497.58867419927856 453.4180936640865Q495.4983484164109 452.2491031563938 494.3664985791314 449.75845959277945Q493.2346487418519 447.2678160291651 493.2346487418519 443.3228545354438V429.53815950920244H498.4841501557706V442.0626218404908Q498.4841501557706 445.0626671075776 499.1874698747842 446.70356927878163Q499.8907895937978 448.34447144998563 501.1395886477304 448.99672647976183Q502.3883877016631 449.648981509538 503.97001052015423 449.6682655141631Q506.8072197172162 449.68754951878833 508.35920285935094 447.7650704221985Q509.9111860014857 445.8425913256087 509.9111860014857 442.2851015630991V429.53815950920244H515.1606874154045V454.0H510.22258475316323L509.9986776917177 450.5117809620638Q508.794869671803 452.4612272072709 506.90470277930876 453.52415568952506Q505.0145358868145 454.58708417177917 502.5447858165979 454.58708417177917Z M521.3196963029619 454.0V429.53815950920244H526.5691977168807V433.959147463334Q528.0458364792224 431.659734457199 530.3845311640264 430.55002330221913Q532.7232258488305 429.44031214723924 535.228689250623 429.44031214723924V434.4644791608752Q533.0181952735572 434.4644791608752 531.0367861938026 435.0878081837136Q529.055377114048 435.71113720655194 527.8122874154644 437.12081347218896Q526.5691977168807 438.5304897378259 526.5691977168807 440.86060545928393V454.0Z M548.0634574339771 454.0 561.7677974641726 419.75342331288346H567.5615330241084L581.2658730543039 454.0H575.4707101555309L572.0421347701781 445.40838171263897H557.2871957181028L553.8586203327501 454.0ZM559.1259485518116 440.54598773006137H570.2033819364694L564.674307246453 426.60884216617137Z M585.8039625143787 454.0V419.75342331288346H591.268442656849V454.0Z M621.6700312901407 454.58708417177917Q617.954686213214 454.58708417177917 615.0755078794214 452.9481408588957Q612.1963295456286 451.3091975460123 610.568455573895 448.41305836578556Q608.9405816021614 445.51691918555883 608.9405816021614 441.76907975460125Q608.9405816021614 438.0019563190184 610.5536357357169 435.1154591411043Q612.1666898692722 432.22896196319016 615.0265841984397 430.5900186503068Q617.8864785276072 428.95107533742333 621.5721839281775 428.95107533742333Q625.2000373148724 428.95107533742333 628.1029638197372 430.6753693322829Q631.005890324602 432.39966332714243 632.4350327447995 435.563637563866L627.5769207787336 437.473452760856Q626.7409361855347 435.81326658502684 625.0962835173023 434.83640245416746Q623.4516308490699 433.8595383233081 621.3793438819256 433.8595383233081Q619.29670124305 433.8595383233081 617.7002585863806 434.86675579994244Q616.1038159297112 435.87397327657686 615.1951594844586 437.65718232427866Q614.2865030392061 439.44039137198047 614.2865030392061 441.76907975460125Q614.2865030392061 444.09776813722203 615.2099793226369 445.87133518261123Q616.1334556060676 447.6449022280004 617.7640021055404 448.66176170694735Q619.3945486050133 449.6786211858944 621.4771912438888 449.6786211858944Q623.5598338827643 449.6786211858944 625.2096643868624 448.61283802596574Q626.8594948909604 447.5470548660372 627.685123812428 445.7090306320696L632.5728754548503 447.59956182443443Q631.1437330346528 450.91173444294 628.2356286939223 452.74940930735954Q625.327524353192 454.58708417177917 621.6700312901407 454.58708417177917Z M648.0652283044949 454.58708417177917Q644.3893976910332 454.58708417177917 641.5559449264899 452.9481408588957Q638.7224921619465 451.3091975460123 637.1143162685571 448.42270036809816Q635.5061403751675 445.53620319018404 635.5061403751675 441.76907975460125Q635.5061403751675 438.0019563190184 637.08857494166 435.1154591411043Q638.6710095081525 432.22896196319016 641.5040778449373 430.5900186503068Q644.3371461817222 428.95107533742333 647.9614318017534 428.95107533742333Q651.636763698123 428.95107533742333 654.4698320349078 430.5900186503068Q657.3029003716927 432.22896196319016 658.8870284983103 435.1154591411043Q660.471156624928 438.0019563190184 660.471156624928 441.76907975460125Q660.471156624928 445.53620319018404 658.8885073330209 448.42270036809816Q657.3058580411138 451.3091975460123 654.4979318780528 452.9481408588957Q651.6900057149918 454.58708417177917 648.0652283044949 454.58708417177917ZM648.0620340215202 449.75575720439514Q650.1462573165126 449.75575720439514 651.7287231515993 448.7333081588901Q653.3111889866861 447.7108591133851 654.2182120872847 445.91675041089513Q655.1252351878833 444.12264170840524 655.1252351878833 441.76907975460125Q655.1252351878833 439.4155178007972 654.2163366839952 437.62140909830725Q653.3074381801072 435.82730039581736 651.6830238327327 434.80485135031233Q650.0586094853584 433.7824023048073 647.9700767530198 433.7824023048073Q645.8815440206814 433.7824023048073 644.2759785464393 434.804298650634Q642.6704130721972 435.82619499646074 641.7612374422047 437.61933386743965Q640.8520618122122 439.4124727384186 640.8520618122122 441.7647624401329Q640.8520618122122 444.1170521418472 641.775538095643 445.90990319186153Q642.6990143790738 447.70275424187594 644.331237748514 448.72925572313557Q645.9634611179542 449.75575720439514 648.0620340215202 449.75575720439514Z M674.9875509273149 454.58708417177917Q671.6621679594036 454.58708417177917 669.1767022316549 452.9963508704587Q666.6912365039061 451.4056175691382 665.3110177646902 448.50430055304594Q663.9307990254744 445.6029835369536 663.9307990254744 441.76907975460125Q663.9307990254744 437.8862522912672 665.3110177646902 435.0093971156657Q666.6912365039061 432.13254194006424 669.1767022316549 430.54180863874376Q671.6621679594036 428.95107533742333 674.9875509273149 428.95107533742333Q677.5255086831384 428.95107533742333 679.5201281122986 430.0747105112275Q681.5147475414589 431.19834568503165 682.7689065811924 433.21885429351994V419.75342331288346H688.0184079951111V454.0H683.0313816518883L682.8460425996932 450.22288519255653Q681.5918835599597 452.28196181029523 679.5779801261742 453.43452299103717Q677.5640766923887 454.58708417177917 674.9875509273149 454.58708417177917ZM676.2688592656009 449.78539688075153Q678.1350958370878 449.78539688075153 679.5788759455281 448.8071054110549Q681.0226560539685 447.8288139413583 681.8668553106427 446.0789950670413Q682.7110545673168 444.32917619272433 682.7689065811924 442.1072635049607V441.4605356805982Q682.7110545673168 439.20898331647817 681.8668553106427 437.4688064444738Q681.0226560539685 435.72862957246934 679.5692339432155 434.75033810277273Q678.1158118324626 433.7720466330761 676.2199355846193 433.7720466330761Q674.2158563030818 433.7720466330761 672.6542311586344 434.78890611202314Q671.092606014187 435.8057655909701 670.2135892452909 437.6134364791627Q669.3345724763947 439.42110736735526 669.3345724763947 441.76907975460125Q669.3345724763947 444.1170521418472 670.2380510857816 445.9247230300398Q671.1415296951686 447.73239391823233 672.703154839616 448.75889539949196Q674.2647799840634 449.78539688075153 676.2688592656009 449.78539688075153Z M694.5273836435965 454.0V429.53815950920244H699.7768850575153V454.0ZM697.1817740269123 424.75936936086083Q695.9361790202022 424.75936936086083 695.0019827651696 423.8251731058282Q694.067786510137 422.8909768507956 694.067786510137 421.6453818440855Q694.067786510137 420.35086315639376 695.0019827651696 419.44112874185197Q695.9361790202022 418.5313943273102 697.1817740269123 418.5313943273102Q698.476292714604 418.5313943273102 699.3860271291458 419.44112874185197Q700.2957615436876 420.35086315639376 700.2957615436876 421.6453818440855Q700.2957615436876 422.8909768507956 699.3860271291458 423.8251731058282Q698.476292714604 424.75936936086083 697.1817740269123 424.75936936086083Z M706.3490577753546 454.0V429.53815950920244H711.2871604375958L711.5110674990414 433.0263785471386Q712.714875518956 431.04729262557515 714.6050424114503 429.99918398149924Q716.4952093039445 428.95107533742333 718.9649593741611 428.95107533742333Q721.8603848849692 428.95107533742333 723.9507106678368 430.12006584511596Q726.0410364507045 431.28905635280864 727.172886287984 433.7648800782448Q728.3047361252635 436.24070380368096 728.2750964489071 440.21530497375863V454.0H723.0255950349884V441.47553766871164Q723.0255950349884 438.4562083969996 722.3222753159748 436.8249482281082Q721.6189555969612 435.1936880592168 720.3849763812068 434.54143302944067Q719.1509971654524 433.88917799966447 717.5397346706048 433.8698939950393Q714.7025254735429 433.8313259857889 713.1505423314081 435.75380508237873Q711.5985591892734 437.67628417896856 711.5985591892734 441.25305794610335V454.0Z M744.3174174944882 464.41038837734857Q741.7301717578125 464.41038837734857 739.6878738365726 463.97900358140816Q737.6455759153326 463.5476187854678 736.2385721774349 462.9464284449291Q734.831568439537 462.3452381043903 734.0723555649683 461.83064363472965L736.0935927731979 457.5910471555071Q736.7578129634777 457.9527969270035 737.8985911336513 458.4664955773102Q739.0393693038247 458.98019422761695 740.619746933414 459.3567638372915Q742.2001245630032 459.73333344696607 744.1438614528614 459.73333344696607Q746.2829287667753 459.73333344696607 747.9609716083924 458.8794921879793Q749.6390144500095 458.02565092899255 750.5958809068252 456.2290493819498Q751.5527473636407 454.432447834907 751.5527473636407 451.63380664709547V449.15512824398485Q750.279304319282 451.20384918999235 748.2268328762461 452.3705165394939Q746.1743614332103 453.5371838889954 743.5785516635113 453.5371838889954Q740.2531686956 453.5371838889954 737.7677029678513 452.0287644420413Q735.2822372401025 450.5203449950872 733.9020185008867 447.7932976900403Q732.5217997616708 445.0662503849933 732.5217997616708 441.45482632524926Q732.5217997616708 437.66984622387844 733.9020185008867 434.8715544056149Q735.2822372401025 432.0732625873514 737.7677029678513 430.51216896238736Q740.2531686956 428.95107533742333 743.5785516635113 428.95107533742333Q746.1743614332103 428.95107533742333 748.2268328762461 430.1363130221314Q750.279304319282 431.3215507068395 751.5527473636407 433.50525968522334V429.53815950920244H756.8022487775594V451.47953461009394Q756.8022487775594 455.6587588369919 755.2315131502828 458.558648514247Q753.6607775230061 461.4585381915021 750.8446290389546 462.9344632844253Q748.0284805549031 464.41038837734857 744.3174174944882 464.41038837734857ZM744.9948480341736 449.09296435295244Q746.8996526149108 449.09296435295244 748.3337907210387 448.085746876318Q749.7679288271664 447.07852939968365 750.5735600745902 445.32942419478525Q751.379191322014 443.5803189898869 751.379191322014 441.3198382928729Q751.379191322014 439.05042926296494 750.5639180722776 437.31614389624474Q749.7486448225412 435.58185852952454 748.3145067164135 434.599102893381Q746.8803686102857 433.61634725723735 744.9459243531921 433.61634725723735Q742.9418450716545 433.61634725723735 741.4091459341449 434.599102893381Q739.8764467966354 435.58185852952454 739.0167140323643 437.31614389624474Q738.1569812680933 439.05042926296494 738.1376972634681 441.3198382928729Q738.1569812680933 443.5803189898869 739.0315338705425 445.32942419478525Q739.9060864729918 447.07852939968365 741.4484276128139 448.085746876318Q742.9907687526361 449.09296435295244 744.9948480341736 449.09296435295244Z M782.6839121004064 454.58708417177917Q778.3143455429416 454.58708417177917 775.8926233343527 452.62174574979565Q773.4709011257637 450.6564073278121 773.4709011257637 447.1017609815951Q773.4709011257637 443.2885606957043 776.0211885965211 441.29876043323Q778.5714760672787 439.3089601707556 783.1660318335382 439.3089601707556H789.4424971525505Q789.1503784819977 436.48787042066044 787.8894514805685 435.02911357229965Q786.6285244791393 433.57035672393886 784.1695296920283 433.57035672393886Q782.3858011499042 433.57035672393886 781.0382647999052 434.32241771943904Q779.690728449906 435.07447871493923 778.7765374613584 436.6443067523607L774.1418971247402 434.9558773601283Q774.9443052165589 433.32319010695943 776.2568534203422 431.95688557781676Q777.5694016241255 430.5905810486741 779.5213669097104 429.7708281930487Q781.4733321952955 428.95107533742333 784.1695296920283 428.95107533742333Q787.7366881576744 428.95107533742333 790.0982486718883 430.33629735501063Q792.4598091861023 431.721519372598 793.6164834565527 434.3151861722909Q794.7731577270032 436.90885297198383 794.7410164114611 440.59918165705335L794.6445924648347 454.0H789.7681805539821L789.6199860957005 450.9610381177939Q788.6233066952924 452.7083550983655 786.8767014223893 453.64771963507235Q785.130096149486 454.58708417177917 782.6839121004064 454.58708417177917ZM783.3238915805753 450.1285093629742Q785.1579672190178 450.1285093629742 786.5726330307748 449.3191335037727Q787.9872988425317 448.5097576445712 788.771501153574 447.1006361848604Q789.5557034646163 445.6915147251496 789.5557034646163 443.9160280564442V443.38183919305493H784.778791271992Q781.481275450112 443.38183919305493 780.1490980502156 444.32476226810377Q778.8169206503193 445.2676853431526 778.8169206503193 446.97319571942654Q778.8169206503193 448.4522934715688 780.0051738379445 449.2904014172715Q781.1934270255697 450.1285093629742 783.3238915805753 450.1285093629742Z M810.8046999484759 464.41038837734857Q808.2174542118003 464.41038837734857 806.1751562905604 463.97900358140816Q804.1328583693204 463.5476187854678 802.7258546314226 462.9464284449291Q801.3188508935248 462.3452381043903 800.5596380189561 461.83064363472965L802.5808752271856 457.5910471555071Q803.2450954174654 457.9527969270035 804.385873587639 458.4664955773102Q805.5266517578125 458.98019422761695 807.1070293874018 459.3567638372915Q808.687407016991 459.73333344696607 810.6311439068492 459.73333344696607Q812.770211220763 459.73333344696607 814.4482540623801 458.8794921879793Q816.1262969039973 458.02565092899255 817.0831633608129 456.2290493819498Q818.0400298176285 454.432447834907 818.0400298176285 451.63380664709547V449.15512824398485Q816.7665867732698 451.20384918999235 814.7141153302339 452.3705165394939Q812.661643887198 453.5371838889954 810.0658341174991 453.5371838889954Q806.7404511495878 453.5371838889954 804.254985421839 452.0287644420413Q801.7695196940903 450.5203449950872 800.3893009548744 447.7932976900403Q799.0090822156585 445.0662503849933 799.0090822156585 441.45482632524926Q799.0090822156585 437.66984622387844 800.3893009548744 434.8715544056149Q801.7695196940903 432.0732625873514 804.254985421839 430.51216896238736Q806.7404511495878 428.95107533742333 810.0658341174991 428.95107533742333Q812.661643887198 428.95107533742333 814.7141153302339 430.1363130221314Q816.7665867732698 431.3215507068395 818.0400298176285 433.50525968522334V429.53815950920244H823.2895312315471V451.47953461009394Q823.2895312315471 455.6587588369919 821.7187956042706 458.558648514247Q820.1480599769939 461.4585381915021 817.3319114929424 462.9344632844253Q814.5157630088909 464.41038837734857 810.8046999484759 464.41038837734857ZM811.4821304881614 449.09296435295244Q813.3869350688985 449.09296435295244 814.8210731750264 448.085746876318Q816.2552112811542 447.07852939968365 817.060842528578 445.32942419478525Q817.8664737760017 443.5803189898869 817.8664737760017 441.3198382928729Q817.8664737760017 439.05042926296494 817.0512005262653 437.31614389624474Q816.235927276529 435.58185852952454 814.8017891704012 434.599102893381Q813.3676510642734 433.61634725723735 811.4332068071799 433.61634725723735Q809.4291275256422 433.61634725723735 807.8964283881327 434.599102893381Q806.3637292506231 435.58185852952454 805.5039964863521 437.31614389624474Q804.6442637220811 439.05042926296494 804.6249797174559 441.3198382928729Q804.6442637220811 443.5803189898869 805.5188163245302 445.32942419478525Q806.3933689269795 447.07852939968365 807.9357100668017 448.085746876318Q809.4780512066238 449.09296435295244 811.4821304881614 449.09296435295244Z M840.3788675124728 454.58708417177917Q836.7920798507137 454.58708417177917 834.028603582922 452.9481408588957Q831.2651273151303 451.3091975460123 829.6918900486678 448.42270036809816Q828.1186527822055 445.53620319018404 828.1186527822055 441.76907975460125Q828.1186527822055 438.0019563190184 829.7156401814902 435.1154591411043Q831.312627580775 432.22896196319016 834.1075334564405 430.5900186503068Q836.9024393321059 428.95107533742333 840.5199448940704 428.95107533742333Q843.832819666053 428.95107533742333 846.4473897678947 430.6389423312884Q849.0619598697365 432.32680932515336 850.575035441824 435.47953991779264Q852.0881110139114 438.63227051043197 852.0881110139114 443.01150235665204H833.544313887948Q833.7889322928559 446.2128928505077 835.8578117381498 448.0421358445725Q837.9266911834437 449.8713788386372 840.8288459300627 449.8713788386372Q843.120017062779 449.8713788386372 844.6353770671726 448.83060840162517Q846.1507370715664 447.7898379646131 846.9867098942639 446.13467468465757L851.6185034002085 448.133428528219Q850.624670830474 450.1043113022487 849.0360746139089 451.5629188413084Q847.4474783973438 453.0215263803681 845.2809008993878 453.8043052760736Q843.1143234014318 454.58708417177917 840.3788675124728 454.58708417177917ZM833.8699972893796 438.9386233343527H846.4010491378216Q846.2542780948768 437.13668901145235 845.3722284218712 435.93023004305087Q844.4901787488657 434.7237710746494 843.1803280664549 434.09885192598097Q841.8704773840441 433.4739327773125 840.3913796319019 433.4739327773125Q838.9612055607413 433.4739327773125 837.51923107782 434.0827812682099Q836.0772565948986 434.6916297591073 835.0714743041024 435.9064799102285Q834.065692013306 437.1213300613497 833.8699972893796 438.9386233343527Z M856.3979873459068 454.0V429.53815950920244H861.3360900081481L861.5599970695936 433.0263785471386Q862.7638050895082 431.04729262557515 864.6539719820025 429.99918398149924Q866.5441388744968 428.95107533742333 869.0138889447134 428.95107533742333Q871.9093144555214 428.95107533742333 873.999640238389 430.12006584511596Q876.0899660212567 431.28905635280864 877.2218158585363 433.7648800782448Q878.3536656958157 436.24070380368096 878.3240260194593 440.21530497375863V454.0H873.0745246055407V441.47553766871164Q873.0745246055407 438.4562083969996 872.371204886527 436.8249482281082Q871.6678851675134 435.1936880592168 870.433905951759 434.54143302944067Q869.1999267360046 433.88917799966447 867.5886642411571 433.8698939950393Q864.7514550440951 433.8313259857889 863.1994719019604 435.75380508237873Q861.6474887598256 437.67628417896856 861.6474887598256 441.25305794610335V454.0Z M893.6071341904717 454.58708417177917Q889.768584091737 454.58708417177917 887.7448565057036 452.656739781262Q885.7211289196703 450.7263953907448 885.7211289196703 447.15924869560007V434.0609424025834H881.636897377061V429.53815950920244H885.7211289196703V421.9060652760736H890.970630333589V429.53815950920244H897.6695913506519V434.0609424025834H890.970630333589V446.21433246896567Q890.970630333589 447.93987165272716 891.8066149267879 448.83817242624855Q892.6425995199867 449.73647319976993 894.2242223384778 449.73647319976993Q894.7341704917562 449.73647319976993 895.3064348253572 449.5363143093966Q895.878699158958 449.3361554190232 896.6657600711753 448.7951402505512L898.5830762622221 452.84332402235907Q897.3392728942198 453.70323893656536 896.0922505486724 454.14516155417226Q894.8452282031251 454.58708417177917 893.6071341904717 454.58708417177917Z M911.8856599114517 454.58708417177917Q909.38628193538 454.58708417177917 907.3482696995925 453.83573488394734Q905.310257463805 453.08438559611557 903.8537850477505 451.7473755518414Q902.397312631696 450.4103655075673 901.6509452975429 448.6380242881376L906.1891616875348 446.6310285711575Q906.9565816331376 448.02336766542885 908.4215945412129 448.9634439098041Q909.8866074492882 449.9035201541793 911.7010538916177 449.9035201541793Q913.6511826727996 449.9035201541793 914.8506738738181 449.2289656168608Q916.0501650748366 448.5544110795424 916.0501650748366 447.30457278220547Q916.0501650748366 446.1218639466264 915.1309921326102 445.4626683594106Q914.2118191903838 444.8034727721948 912.5188209335389 444.3756717627895L910.2179845120671 443.7718052255709Q906.7793913085897 442.85903765236003 904.8329703750508 440.94618144970013Q902.8865494415119 439.0333252470402 902.8865494415119 436.57605249386813Q902.8865494415119 432.94318798180103 905.241142188343 430.9471316596122Q907.595734935174 428.95107533742333 912.0645722699387 428.95107533742333Q914.2968558143158 428.95107533742333 916.1775707014335 429.61083332300643Q918.0582855885514 430.2705913085896 919.4015516925401 431.46011860225053Q920.7448177965288 432.6496458959115 921.2997606527658 434.2473450028647L916.8901095249424 436.2404051850788Q916.3966024691161 434.94306662209715 915.0085336208551 434.272782330789Q913.6204647725942 433.60249803948096 911.9135309809835 433.60249803948096Q910.1562500930544 433.60249803948096 909.1783388717897 434.34972639060345Q908.2004276505252 435.0969547417259 908.2004276505252 436.42785803558655Q908.2004276505252 437.2149071773025 909.0615740213818 437.8489292163591Q909.9227203922386 438.4829512554157 911.5807305028678 438.8939698993815L914.3915577270033 439.5928369678897Q916.7888180951014 440.17992113966886 918.3159785112558 441.4092692239233Q919.8431389274102 442.6386173081777 920.5875204478591 444.16989866104143Q921.3319019683079 445.7011800139051 921.3319019683079 447.2849435860924Q921.3319019683079 449.4865092302642 920.0941627013337 451.1408114932503Q918.8564234343596 452.7951137562364 916.7310901423339 453.6910989640078Q914.605756850308 454.58708417177917 911.8856599114517 454.58708417177917Z M937.9716202080139 454.0V429.53815950920244H943.2211216219326V454.0ZM940.6260105913296 424.75936936086083Q939.3804155846195 424.75936936086083 938.4462193295869 423.8251731058282Q937.5120230745543 422.8909768507956 937.5120230745543 421.6453818440855Q937.5120230745543 420.35086315639376 938.4462193295869 419.44112874185197Q939.3804155846195 418.5313943273102 940.6260105913296 418.5313943273102Q941.9205292790214 418.5313943273102 942.8302636935632 419.44112874185197Q943.7399981081049 420.35086315639376 943.7399981081049 421.6453818440855Q943.7399981081049 422.8909768507956 942.8302636935632 423.8251731058282Q941.9205292790214 424.75936936086083 940.6260105913296 424.75936936086083Z M949.7932943397719 454.0V429.53815950920244H954.7313970020132L954.9553040634587 433.0263785471386Q956.1591120833733 431.04729262557515 958.0492789758675 429.99918398149924Q959.9394458683619 428.95107533742333 962.4091959385785 428.95107533742333Q965.3046214493866 428.95107533742333 967.3949472322543 430.12006584511596Q969.4852730151218 431.28905635280864 970.6171228524013 433.7648800782448Q971.7489726896808 436.24070380368096 971.7193330133244 440.21530497375863V454.0H966.4698315994058V441.47553766871164Q966.4698315994058 438.4562083969996 965.7665118803922 436.8249482281082Q965.0631921613785 435.1936880592168 963.8292129456241 434.54143302944067Q962.5952337298697 433.88917799966447 960.9839712350222 433.8698939950393Q958.1467620379602 433.8313259857889 956.5947788958255 435.75380508237873Q955.0427957536907 437.67628417896856 955.0427957536907 441.25305794610335V454.0Z M998.0402621200408 454.58708417177917Q995.540884143969 454.58708417177917 993.5028719081815 453.83573488394734Q991.464859672394 453.08438559611557 990.0083872563396 451.7473755518414Q988.551914840285 450.4103655075673 987.8055475061319 448.6380242881376L992.3437638961238 446.6310285711575Q993.1111838417266 448.02336766542885 994.576196749802 448.9634439098041Q996.0412096578773 449.9035201541793 997.8556561002067 449.9035201541793Q999.8057848813886 449.9035201541793 1001.0052760824071 449.2289656168608Q1002.2047672834257 448.5544110795424 1002.2047672834257 447.30457278220547Q1002.2047672834257 446.1218639466264 1001.2855943411993 445.4626683594106Q1000.3664213989729 444.8034727721948 998.673423142128 444.3756717627895L996.3725867206562 443.7718052255709Q992.9339935171787 442.85903765236003 990.9875725836398 440.94618144970013Q989.0411516501009 439.0333252470402 989.0411516501009 436.57605249386813Q989.0411516501009 432.94318798180103 991.3957443969321 430.9471316596122Q993.7503371437631 428.95107533742333 998.2191744785277 428.95107533742333Q1000.4514580229048 428.95107533742333 1002.3321729100226 429.61083332300643Q1004.2128877971404 430.2705913085896 1005.5561539011292 431.46011860225053Q1006.8994200051178 432.6496458959115 1007.4543628613549 434.2473450028647L1003.0447117335315 436.2404051850788Q1002.5512046777052 434.94306662209715 1001.1631358294442 434.272782330789Q999.7750669811833 433.60249803948096 998.0681331895726 433.60249803948096Q996.3108523016434 433.60249803948096 995.3329410803788 434.34972639060345Q994.3550298591142 435.0969547417259 994.3550298591142 436.42785803558655Q994.3550298591142 437.2149071773025 995.2161762299709 437.8489292163591Q996.0773226008276 438.4829512554157 997.7353327114569 438.8939698993815L1000.5461599355923 439.5928369678897Q1002.9434203036905 440.17992113966886 1004.4705807198449 441.4092692239233Q1005.9977411359993 442.6386173081777 1006.7421226564481 444.16989866104143Q1007.4865041768969 445.7011800139051 1007.4865041768969 447.2849435860924Q1007.4865041768969 449.4865092302642 1006.2487649099228 451.1408114932503Q1005.0110256429487 452.7951137562364 1002.8856923509229 453.6910989640078Q1000.760359058897 454.58708417177917 998.0402621200408 454.58708417177917Z M1015.598529798337 464.37182036809816Q1014.4493548147528 464.37182036809816 1013.0452057545294 463.9336482475196Q1011.6410566943061 463.4954761269411 1010.337973973591 462.85053994128646L1012.2820751633197 458.54273577645705Q1013.2648307994634 459.0126885816478 1014.0393950316936 459.2669489888684Q1014.8139592639237 459.521209396089 1015.3224800783648 459.521209396089Q1016.4905747667036 459.521209396089 1017.3185268463624 458.892702537385Q1018.1464789260211 458.264195678681 1018.6564270792994 457.06788865282306L1019.9962861705571 453.80715995374806L1009.210573372436 429.53815950920244H1014.9050342315713L1022.4771205122462 447.7970183264235L1029.8860064230255 429.53815950920244H1035.6101069585172L1024.2023252567822 456.71828619176574Q1023.2252789759875 459.0430568577454 1022.1652051714079 460.76592351376775Q1021.1051313668282 462.4887901697901 1019.5668900935825 463.43030526894415Q1018.0286488203367 464.37182036809816 1015.598529798337 464.37182036809816Z M1038.98116476922 454.0V429.53815950920244H1043.919267431461L1044.1431744929066 433.0263785471386Q1045.3469825128213 431.04729262557515 1047.2371494053154 429.99918398149924Q1049.1273162978098 428.95107533742333 1051.5970663680266 428.95107533742333Q1054.4924918788347 428.95107533742333 1056.5828176617024 430.12006584511596Q1058.6731434445699 431.28905635280864 1059.8049932818494 433.7648800782448Q1060.936843119129 436.24070380368096 1060.9072034427725 440.21530497375863V454.0H1055.6577020288537V441.47553766871164Q1055.6577020288537 438.4562083969996 1054.9543823098402 436.8249482281082Q1054.2510625908267 435.1936880592168 1053.0170833750722 434.54143302944067Q1051.7831041593176 433.88917799966447 1050.17184166447 433.8698939950393Q1047.3346324674083 433.8313259857889 1045.7826493252735 435.75380508237873Q1044.2306661831387 437.67628417896856 1044.2306661831387 441.25305794610335V454.0Z M1077.8833564435154 454.58708417177917Q1074.1680113665886 454.58708417177917 1071.288833032796 452.9481408588957Q1068.4096546990033 451.3091975460123 1066.7817807272697 448.41305836578556Q1065.1539067555361 445.51691918555883 1065.1539067555361 441.76907975460125Q1065.1539067555361 438.0019563190184 1066.7669608890915 435.1154591411043Q1068.3800150226468 432.22896196319016 1071.2399093518143 430.5900186503068Q1074.0998036809817 428.95107533742333 1077.7855090815522 428.95107533742333Q1081.413362468247 428.95107533742333 1084.3162889731118 430.6753693322829Q1087.2192154779766 432.39966332714243 1088.648357898174 435.563637563866L1083.790245932108 437.473452760856Q1082.9542613389094 435.81326658502684 1081.3096086706769 434.83640245416746Q1079.6649560024446 433.8595383233081 1077.5926690353003 433.8595383233081Q1075.5100263964246 433.8595383233081 1073.9135837397553 434.86675579994244Q1072.317141083086 435.87397327657686 1071.4084846378332 437.65718232427866Q1070.4998281925807 439.44039137198047 1070.4998281925807 441.76907975460125Q1070.4998281925807 444.09776813722203 1071.4233044760115 445.87133518261123Q1072.3467807594423 447.6449022280004 1073.977327258915 448.66176170694735Q1075.6078737583878 449.6786211858944 1077.6905163972635 449.6786211858944Q1079.773159036139 449.6786211858944 1081.422989540237 448.61283802596574Q1083.072820044335 447.5470548660372 1083.8984489658026 445.7090306320696L1088.7862006082248 447.59956182443443Q1087.3570581880274 450.91173444294 1084.448953847297 452.74940930735954Q1081.5408495065665 454.58708417177917 1077.8833564435154 454.58708417177917Z"/>
</svg>
