<svg xmlns="http://www.w3.org/2000/svg" viewBox="0 -10 1168 482" role="img" aria-label="Cyncia logo">
  <defs>
    <linearGradient id="cg" x1="0" y1="0" x2="0" y2="512" gradientUnits="userSpaceOnUse">
      <stop offset="0" stop-color="#1e78f0"/>
      <stop offset="1" stop-color="#8629e6"/>
    </linearGradient>
  </defs>

  <!-- C mark (same geometry as favicon-rounded.svg, scaled into place) -->
  <g transform="translate(46.4 33.6) scale(0.7716)">
    <path d="M 366.1 98.7 A 192 192 0 1 0 366.1 413.3" fill="none" stroke="url(#cg)" stroke-width="46" stroke-linecap="round"/>
    <path d="M 344.9 137.3 L 396.4 63.7 L 433.1 144.3 Z" fill="url(#cg)" stroke="url(#cg)" stroke-width="18" stroke-linejoin="round"/>
    <path d="M 344.9 374.7 L 396.4 448.3 L 433.1 367.7 Z" fill="url(#cg)" stroke="url(#cg)" stroke-width="18" stroke-linejoin="round"/>
    <path d="M 101 188 L 252 188" fill="none" stroke="url(#cg)" stroke-width="22" stroke-linecap="round"/>
    <path d="M 87 256 L 332 256" fill="none" stroke="url(#cg)" stroke-width="22" stroke-linecap="round"/>
    <path d="M 101 324 L 252 324" fill="none" stroke="url(#cg)" stroke-width="22" stroke-linecap="round"/>
    <circle cx="252" cy="188" r="19" fill="url(#cg)"/>
    <circle cx="332" cy="256" r="27" fill="url(#cg)"/>
    <circle cx="252" cy="324" r="19" fill="url(#cg)"/>
  </g>

  <!-- yncia wordmark -->
  <path fill="#f4f8ff" d="M452.17420957368086 394.5999813814932Q445.3067790943026 394.5999813814932 436.9156322354553 391.98545252164854Q428.52448537660797 389.3709236618039 420.7373075131641 385.522654474969L432.3551898688156 359.81842140638577Q438.228104007952 362.62258240666563 442.85687342308785 364.1397286178768Q447.48564283822367 365.65687482908794 450.524545868987 365.65687482908794Q457.5050398582298 365.65687482908794 462.4528532274169 361.9066377794958Q467.40066659660397 358.1564007299036 470.44809935554207 351.0181573377614L478.455051554133 331.5617179901382L414.0 186.7510395332961H448.0299037364038L493.2804329066464 295.69980894022575L537.5556822365894 186.7510395332961H571.7627116672666L503.59019757698655 348.93211470524454Q497.7514023505492 362.8037868479159 491.41643747578723 373.08395845693394Q485.0814726010253 383.36413006595205 475.8889952538607 388.9820557237226Q466.6965179066961 394.5999813814932 452.17420957368086 394.5999813814932Z M587.2182482027686 332.71237510085024V186.7510395332961H616.7281811698138L618.0662421268348 207.56489079362416Q625.2601577666427 195.7558846633202 636.5557306028538 189.5019260714975Q647.851303439065 183.2479674796748 662.6104455635768 183.2479674796748Q679.9134095923239 183.2479674796748 692.4051251257781 190.22321596242102Q704.8968406592323 197.19846444516728 711.6607366556191 211.97145496198658Q718.4246326520057 226.74444547880591 718.2475069577324 250.46048987665665V332.71237510085024H686.876665679021V257.98017129026255Q686.876665679021 239.9641379838933 682.673651043219 230.230573046328Q678.470636407417 220.49700810876274 671.0964187310448 216.60506811706017Q663.7222010546725 212.71312812535757 654.0933513795047 212.5980624142864Q637.1382860547222 212.36793099214398 627.863687768101 223.83916990585197Q618.58908948148 235.31040881956 618.58908948148 256.6526572194866V332.71237510085024Z M820.2680425027191 336.2154471544715Q798.0652671315424 336.2154471544715 780.8593956781068 326.43603767144543Q763.6535242246712 316.6566281884193 753.9254049305993 299.3756577359123Q744.1972856365273 282.0946872834053 744.1972856365273 259.7317073170732Q744.1972856365273 237.25366163966982 753.8368420834627 220.03022404269842Q763.4763985303979 202.80678644572706 780.5670294303762 193.02737696270094Q797.6576603303546 183.2479674796748 819.6833100072579 183.2479674796748Q841.3632380237893 183.2479674796748 858.711027737003 193.5366558756071Q876.0588174502165 203.8253442715394 884.5993237752201 222.70445949867184L855.5674124783536 234.10013420044845Q850.571597082409 224.19397069627638 840.7432088707346 218.36512093078503Q830.9148206590603 212.53627116529367 818.5309044726849 212.53627116529367Q806.0851031454937 212.53627116529367 796.5448163174626 218.54623628430605Q787.0045294894314 224.55620140331843 781.5744295859784 235.19642997878537Q776.1443296825252 245.83665855425232 776.1443296825252 259.7317073170732Q776.1443296825252 273.626756079894 781.6629924331149 284.2094517998254Q787.1816551837047 294.7921475197567 796.9257454123298 300.8596454943047Q806.6698356409548 306.92714346885265 819.1156369681462 306.92714346885265Q831.5614382953376 306.92714346885265 841.4207690774199 300.56772282316956Q851.2800998595022 294.2083021774865 856.2140301146308 283.24099691293094L885.4230671057707 294.5216059036364Q876.882560780767 314.2850059310884 859.5038284971454 325.25022654277996Q842.1250962135239 336.2154471544715 820.2680425027191 336.2154471544715Z M906.0880879558537 332.71237510085024V186.7510395332961H937.4589292345651V332.71237510085024ZM921.9506342894827 158.23648059357038Q914.5070010428179 158.23648059357038 908.9242761078194 152.66222574066748Q903.3415511728209 147.08797088776458 903.3415511728209 139.65563108389406Q903.3415511728209 131.93136860888845 908.9242761078194 126.50307509155311Q914.5070010428179 121.07478157421778 921.9506342894827 121.07478157421778Q929.6866337838779 121.07478157421778 935.1231755950112 126.50307509155311Q940.5597174061444 131.93136860888845 940.5597174061444 139.65563108389406Q940.5597174061444 147.08797088776458 935.1231755950112 152.66222574066748Q929.6866337838779 158.23648059357038 921.9506342894827 158.23648059357038Z M1017.9419631274735 336.2154471544715Q991.8295825178527 336.2154471544715 977.3574532551877 324.4884709679142Q962.8853239925226 312.76149478135693 962.8853239925226 291.55127847079996Q962.8853239925226 268.79829687382704 978.1257548738424 256.9253593517022Q993.3661857551623 245.05242182957733 1020.8230941974291 245.05242182957733H1058.3310367216477Q1056.5853455167342 228.21926375895973 1049.050088792925 219.5150087404072Q1041.5148320691158 210.81075372185467 1026.8199631493544 210.81075372185467Q1016.1604622621054 210.81075372185467 1008.1076310273086 215.29822584697Q1000.0547997925117 219.78569797208536 994.591625647227 229.15270357575713L966.8951731806244 219.07801564724818Q971.6903365503211 209.33593544170088 979.5340798175141 201.18333408937477Q987.377823084707 193.03073273704865 999.042701008786 188.13935010836173Q1010.707578932865 183.2479674796748 1026.8199631493544 183.2479674796748Q1048.1371803892785 183.2479674796748 1062.2497854197393 191.51344757798103Q1076.3623904502 199.77892767628722 1083.2746364119328 215.25507593433935Q1090.1868823736654 230.7312241923915 1089.9948069690017 252.75104333717888L1089.4185807550107 332.71237510085024H1060.277309612695L1059.391704588033 314.5791959873424Q1053.435582508884 325.00526021746595 1042.9979290114438 330.61035368596873Q1032.560275514004 336.2154471544715 1017.9419631274735 336.2154471544715ZM1021.7664586578074 309.6115808564374Q1032.7268320742573 309.6115808564374 1041.1808266813218 304.782116719034Q1049.634821288386 299.95265258163056 1054.321187533546 291.54456692210454Q1059.0075537787056 283.13648126257846 1059.0075537787056 272.5423313438869V269.35488026166166H1030.460889556495Q1010.7550475525372 269.35488026166166 1002.7940008793372 274.98120716962137Q994.8329542061372 280.60753407758114 994.8329542061372 290.7841425154834Q994.8329542061372 299.6097696557988 1001.9339146990856 304.6106752561181Q1009.0348751920338 309.6115808564374 1021.7664586578074 309.6115808564374Z"/>
</svg>
